<svg width="181" height="183" viewBox="0 0 181 183" fill="none" xmlns="http://www.w3.org/2000/svg">
<path d="M12.0889 136.533C16.5333 126.578 20.2667 118.044 24.3556 108.8C16.3556 102.933 8.35556 97.4223 0 91.2001C8.17778 85.1556 16 79.4667 24.3556 73.2445C20.4444 64.5333 16.7111 56.0001 12.2667 45.8668C20.2667 44.9779 27.7333 43.9111 35.0222 43.5556C40.5333 43.2 42.8444 40.7111 43.2 35.0222C43.5556 27.7334 44.4444 20.6223 45.1556 12.2667C54.7556 16.7112 63.2889 20.4445 72.3556 24.5334C78.2222 16.5334 83.9111 8.71111 90.1333 0C96.1778 8.35555 101.689 16.1779 107.556 24.5334C116.622 20.4445 125.333 16.5333 134.933 12.4444C136 22.5778 137.067 32.0001 138.133 42.3112C147.733 43.3779 157.156 44.6223 167.822 45.8668C163.556 55.4668 159.822 64 155.733 73.2445C163.733 79.1111 171.378 84.8 180.089 91.0222C171.733 97.0667 164.267 102.578 155.911 108.622C159.822 117.511 163.733 126.222 168 136.356C160 137.244 152.889 138.489 145.778 138.489C139.378 138.667 137.422 141.333 137.244 147.378C137.067 154.311 136 161.244 135.289 169.6C125.689 165.333 116.978 161.6 107.733 157.511C102.044 165.689 96.3556 173.511 90.3111 182.044C84.2667 173.511 78.9333 165.867 72.8889 157.511C64.1778 161.422 55.4667 165.333 45.3333 169.778C44.6222 161.6 44.6222 153.956 43.0222 146.489C42.3111 143.467 38.7556 139.911 35.7333 139.2C28.2667 137.422 20.9778 137.422 12.0889 136.533Z" fill="#53AA48"/>
</svg>
