<svg width="224" height="114" viewBox="0 0 224 114" fill="none" xmlns="http://www.w3.org/2000/svg">
<path d="M146.311 104.889C146.133 103.644 145.956 102.578 145.778 101.333C165.867 89.9556 185.956 78.5777 206.044 67.3777C205.689 66.311 205.156 65.4222 204.8 64.3556C182.933 73.2445 161.067 81.9555 134.4 92.6222C151.111 68.6222 164.444 49.4222 177.778 30.0444C176.889 29.3333 176 28.6222 175.111 28.0889C159.467 45.3333 143.822 62.5777 124.622 83.7333C129.067 54.0444 132.8 29.6888 136.356 5.51107C135.467 5.33329 134.578 5.15553 133.689 4.97776C126.578 28.6222 119.467 52.2666 110.933 80.5333C101.867 50.6666 94.2222 25.2444 86.5778 0C85.8667 0.177778 84.9778 0.533268 84.2667 0.711046C88.7111 26.8444 92.9778 52.9778 98.3111 84.4444C79.1111 63.8222 63.8222 47.2889 48.5333 30.7555C47.6444 31.4666 46.7555 32.1778 45.8666 32.8889C58.6666 51.2 71.2889 69.5111 84.0889 87.6444C83.0222 88.3555 81.9556 89.0667 80.8889 89.7778C57.9556 80.3556 35.0222 71.1111 12.2667 61.6889C11.9111 62.5778 11.3778 63.4667 11.0222 64.3556C32.8889 76.6222 54.9333 89.0667 76.8 101.333C76.4444 102.4 76.2667 103.644 75.9111 104.711C50.6667 106.311 25.2444 108.089 0 109.689C0 110.4 0.177762 111.289 0.177762 112C9.59998 112.533 18.8444 113.244 28.2667 113.778H194.667C204.267 113.244 213.689 112.533 223.289 112C223.289 111.289 223.289 110.578 223.467 109.689C197.689 108.444 171.911 106.667 146.311 104.889Z" fill="#2D5496"/>
</svg>
