<svg width="177" height="177" viewBox="0 0 177 177" fill="none" xmlns="http://www.w3.org/2000/svg">
<path d="M54.4476 169.586C99.4592 188.178 150.994 166.868 169.586 121.856C188.178 76.8446 166.868 25.3097 121.856 6.7179C76.8447 -11.8738 25.3096 9.43596 6.71789 54.4476C-11.8739 99.3504 9.43601 150.994 54.4476 169.586Z" fill="#2D5496"/>
<path d="M54.0794 140.666C49.8392 138.165 45.164 131.098 43.5332 124.901C42.8808 120.66 43.5332 112.289 45.164 106.2C45.2728 102.395 47.8821 95.9802 50.9264 91.74C53.2096 88.9132 58.8632 84.3468 63.4296 81.4112C66.1477 79.6716 71.6926 76.1925 75.8241 73.5832C76.4765 72.9308 77.9986 72.1698 79.1945 71.9523C80.2818 71.8436 82.4563 72.2785 84.0871 72.8221C87.5663 75.5402 95.2857 77.9321 101.374 78.1495C103.005 77.7146 106.158 77.8234 108.441 78.4757C109.746 78.9106 112.138 80.1066 113.769 81.1938C119.531 83.5858 128.773 90.979 134.426 97.8285C135.079 99.0245 136.927 101.09 138.449 102.395C139.427 102.83 140.841 104.134 141.711 105.33C142.472 106.635 143.124 109.462 143.233 111.745C143.342 113.376 143.45 116.855 143.559 119.356C143.776 120.334 143.668 122.291 143.342 123.705C142.146 124.575 140.732 126.858 140.08 128.815C138.123 133.816 131.817 143.493 125.946 150.233C122.358 150.994 118.335 153.93 117.03 156.757C116.922 157.735 116.052 159.149 115.073 160.019C114.638 160.453 113.66 160.997 112.899 161.214C109.42 161.867 102.353 162.084 97.0253 161.649C93.0025 162.193 85.0656 161.323 79.412 159.584C76.3677 158.496 70.4967 155.452 66.3652 152.843C61.69 149.907 58.2109 147.298 55.2753 142.514L54.0794 140.666Z" fill="#FF765D"/>
<path d="M77.455 148.929C74.0846 146.428 70.6055 144.145 67.0176 142.079C70.4967 143.493 73.9758 144.797 77.5637 146.211C78.1073 143.493 78.4335 140.666 78.3248 137.839C78.8684 140.666 79.7382 143.384 80.8254 146.102C80.9342 146.319 81.0429 146.645 81.2604 146.754C81.5865 146.972 82.0214 146.754 82.3476 146.645C85.1744 145.341 87.8925 144.036 90.7193 142.731C88.6536 144.688 86.5878 146.646 84.6308 148.603C89.632 149.037 94.6334 149.798 99.6347 150.886C95.8294 151.429 91.9153 152.082 88.1099 152.625C84.9569 153.06 81.3691 153.495 78.9772 151.429" fill="white"/>
<path d="M15.8086 97.5021C20.7011 87.9345 27.3333 79.3453 35.3788 72.2782C42.5546 65.9723 51.3612 60.1012 53.8619 50.8597C54.6229 48.0329 54.7317 45.0973 55.4927 42.3792C56.4712 38.5739 58.6457 35.0948 60.7114 31.7243C62.5598 28.6801 64.4081 25.6357 66.2564 22.7002C66.5826 22.1566 66.9087 21.7217 67.3436 21.2868C68.3221 20.417 69.7355 20.417 71.0402 20.1996C74.9543 19.5472 78.1072 16.7204 81.3689 14.5459C84.7394 12.3715 88.9797 10.7406 92.5675 12.4802C95.2856 13.7849 96.9165 16.8292 97.2426 19.8734C97.6775 22.9177 97.0252 25.9619 96.4816 28.8975C95.5031 33.5726 94.1984 38.7913 90.1756 41.1832C91.9152 39.3349 93.8722 37.3779 96.3729 36.7256C98.8735 36.0732 102.135 37.3779 102.461 39.9873C102.57 40.9658 102.353 42.0531 102.788 42.9228C103.44 44.2275 105.288 44.445 106.484 45.4235C108.332 46.8369 108.115 49.555 108.115 51.9469C108.115 54.2301 108.876 57.1656 111.159 57.4918C110.181 59.9924 106.81 60.3186 104.092 60.8623C99.0909 61.9495 94.8507 65.8635 93.3286 70.7561C97.4601 70.8648 101.483 69.2339 105.506 69.995C109.42 70.7561 112.464 73.8004 114.312 77.3883C116.161 80.8674 116.922 84.7814 117.683 88.6955C117.9 90.0002 118.009 91.6311 116.813 92.066C115.834 92.5009 114.747 91.6311 113.769 90.9787C110.072 88.6955 105.288 90.3264 101.265 92.066C97.3514 93.8055 93.3286 95.4363 89.4145 97.1759C88.1098 97.7195 86.8051 98.2632 85.3917 98.2632C81.1515 98.1544 79.1945 93.1532 76.3677 90.0002C73.9758 87.2821 70.3879 85.7599 66.8 85.7599C59.733 85.8687 54.2968 91.6311 47.8821 94.7841C42.6633 97.3934 36.4661 98.1544 32.1171 102.068C29.6165 104.243 27.1159 107.722 23.8542 107.07C22.8756 106.852 21.8971 106.309 21.0273 105.656C18.5267 103.808 16.5697 101.199 15.4824 98.2632" fill="#53AA48"/>
<path d="M20.4824 110.767L20.9173 117.943L17.7643 111.528L12.9805 116.855L15.2636 110.006L8.08789 110.441L14.5025 107.288L9.17513 102.504L16.0247 104.787L15.5898 97.6113L18.7428 104.026L23.5267 98.5899L21.2434 105.439L28.4192 105.005L22.0045 108.158L27.332 112.941L20.4824 110.767Z" fill="white"/>
<path d="M14.0684 81.9534L15.4818 70.1025L17.6562 70.32L16.4603 80.3225L18.6348 80.54L19.722 71.2985L21.7877 71.5159L20.7005 80.7574L25.0494 81.3011L24.832 83.2581L14.0684 81.9534Z" fill="white"/>
<path d="M19.179 58.5784L31.4648 55.8604L31.791 55.9691L31.0299 58.0348L27.7682 58.6872L25.0501 65.8629L27.0071 68.581L26.2461 70.6468L25.8112 70.4294L18.418 60.3181L19.179 58.5784ZM20.7011 60.1006L23.528 63.9059L25.2675 59.2308L20.7011 60.1006Z" fill="white"/>
<path d="M34.289 51.8386L33.0931 53.3607L24.5039 46.8373L30.4837 39.0092C32.1146 36.8347 33.8541 36.2912 35.7024 37.7046C37.3333 38.9005 37.2246 40.5314 36.0287 42.3797L41.1386 42.2709L41.4648 42.4884L40.0514 44.3367H34.8327L30.9186 49.4467L34.289 51.8386ZM32.332 39.879L27.3308 46.5112L29.2878 48.0333L34.289 41.4011C35.1588 40.3139 35.0501 39.5529 34.5065 39.118C33.9629 38.6831 33.2018 38.7918 32.332 39.879Z" fill="white"/>
<path d="M50.2734 34.8766L40.7057 31.6149L45.3809 38.247L43.75 39.3343L37.5527 30.4189L39.5097 29.1142L49.5123 32.4846L49.8385 21.9385L51.7956 20.6338L57.9928 29.5491L56.3619 30.6364L51.6868 24.0042L51.4694 34.0068L50.2734 34.8766Z" fill="white"/>
<path d="M60.4928 26.0712L65.3854 20.8524C66.2552 19.8739 66.5813 19.3303 66.3639 18.5692C66.0377 17.8081 65.0592 17.482 63.2109 18.0256C61.7975 18.5692 60.819 19.3303 59.9492 21.1786L58.3184 20.5262C58.862 18.243 60.6015 16.7209 62.5585 15.9599C65.2766 14.9814 67.4511 15.6337 68.2122 17.9169C68.9733 20.0914 67.4511 21.9396 63.1022 25.4188L70.1692 22.8094L70.9303 24.8752L61.2538 28.2456L60.4928 26.0712Z" fill="white"/>
<path d="M73.1055 12.8069L82.347 12.0458C85.3912 11.8284 86.9134 12.9156 87.0221 15.1988C87.2395 17.3733 85.9349 18.7867 82.8906 19.0041L75.6061 19.6565L75.9323 23.5705L73.9752 23.6792L73.1055 12.8069ZM82.8906 14.1116L75.1712 14.7639L75.3886 17.482L83.1081 16.8297C84.6302 16.7209 85.1738 16.0686 85.0651 15.3075C85.0651 14.4377 84.4127 14.0029 82.8906 14.1116Z" fill="white"/>
<path d="M92.6751 11.8281L104.961 13.8939L104.635 15.9597L94.306 14.2201L93.9798 16.3945L103.874 18.0254L103.547 19.9824L93.6536 18.3515L93.2187 20.7435L103.656 22.4831L103.33 24.5488L90.9355 22.4831L92.6751 11.8281Z" fill="white"/>
<path d="M117.898 18.4593C121.921 20.3076 124.095 23.5694 122.573 26.8311C121.051 29.9841 117.246 30.5276 113.223 28.6793C109.2 26.831 107.134 23.5694 108.548 20.3077C110.07 17.1547 113.875 16.611 117.898 18.4593ZM114.093 26.7223C117.246 28.2444 119.855 28.027 120.834 26.07C121.703 24.113 120.181 21.9385 117.028 20.525C113.875 19.0029 111.266 19.2204 110.287 21.1774C109.418 23.1345 110.94 25.2002 114.093 26.7223Z" fill="white"/>
<path d="M130.295 25.6357L137.253 31.7243C139.536 33.7901 139.754 35.6383 138.232 37.2692C136.71 38.9 134.861 39.0088 132.578 36.943L127.142 32.0505L124.533 34.986L123.119 33.6813L130.295 25.6357ZM136.166 33.5726L130.404 28.4626L128.555 30.5283L134.318 35.6383C135.405 36.6168 136.275 36.6168 136.818 35.9645C137.362 35.4209 137.253 34.5511 136.166 33.5726Z" fill="white"/>
<path d="M144.536 39.4434L145.624 41.0742L138.339 45.8581L143.667 53.9036L141.927 55.0996L135.621 45.5319L144.536 39.4434Z" fill="white"/>
<path d="M153.669 54.1221L157.801 65.8642L155.844 66.5166L152.365 56.6227L150.299 57.3838L153.561 66.8428L151.603 67.4951L148.342 58.0361L146.059 58.7972L149.538 68.7998L147.581 69.4521L143.449 57.6012L153.669 54.1221Z" fill="white"/>
<path d="M150.735 74.2351C150.953 75.3223 150.518 76.3008 149.757 76.4096C148.996 76.5183 148.343 75.7573 148.126 74.67C147.908 73.5828 148.235 72.6043 149.104 72.4955C149.974 72.3868 150.626 73.2566 150.735 74.2351Z" fill="white"/>
<path d="M160.192 87.173C159.975 91.6307 157.8 94.7836 154.321 94.6749C150.842 94.5662 148.885 91.1958 149.102 86.7381C149.32 82.2804 151.494 79.1274 154.973 79.2361C158.453 79.3448 160.41 82.7153 160.192 87.173ZM151.168 86.8468C151.059 90.3259 152.147 92.7179 154.321 92.8266C156.496 92.9353 157.8 90.6522 158.018 87.173C158.126 83.6938 157.039 81.3019 154.865 81.1932C152.69 81.0845 151.385 83.3676 151.168 86.8468Z" fill="white"/>
<path d="M147.689 99.6755L148.342 97.8271L158.562 101.415L155.3 110.657C154.43 113.157 152.908 114.353 150.734 113.592C148.777 112.94 148.342 111.418 148.994 109.243L144.102 110.874L143.775 110.765L144.536 108.591L149.538 107.069L151.712 100.98L147.689 99.6755ZM153.234 110.439L155.952 102.611L153.561 101.741L150.842 109.569C150.408 110.874 150.625 111.526 151.386 111.852C152.038 112.07 152.691 111.744 153.234 110.439Z" fill="white"/>
<path d="M134.207 125.879L135.186 124.357L136.708 125.226C136.381 123.378 137.034 121.421 138.23 119.681C140.839 115.876 144.101 114.898 146.928 116.855C149.863 118.812 149.755 122.617 147.254 126.314C145.623 128.706 143.557 130.119 141.709 130.554L141.165 128.814C142.905 128.053 144.101 127.075 145.514 125.009C147.363 122.291 147.689 119.681 145.84 118.377C144.101 117.181 141.926 117.942 139.969 120.769C138.447 122.943 138.121 124.683 138.121 126.096L138.665 126.531L141.274 122.834L143.014 124.03L139.317 129.358L134.207 125.879Z" fill="white"/>
<path d="M123.553 145.992L130.402 143.926L124.857 148.493L131.163 151.972L123.988 151.211L126.053 158.06L121.487 152.516L118.008 158.822L118.769 151.646L111.919 153.711L117.464 149.145L111.158 145.666L118.334 146.427L116.268 139.577L120.835 145.122L124.205 138.816L123.553 145.992Z" fill="white"/>
</svg>
