<svg width="290" height="93" viewBox="0 0 290 93" fill="none" xmlns="http://www.w3.org/2000/svg">
<path d="M46.3063 90.326C70.4599 90.326 90.1116 70.7458 90.183 46.5922C90.2545 22.1527 70.5314 2.28675 46.3063 2.35821C22.1527 2.42967 2.50111 22.1527 2.50111 46.3778C2.35819 70.6029 22.0813 90.326 46.3063 90.326ZM46.1634 92.7556C20.7235 92.7556 0 71.9606 0 46.3778C0 20.795 20.795 0 46.3063 0C71.9606 0 92.5412 20.795 92.4698 46.8066C92.4698 72.175 71.7463 92.7556 46.1634 92.7556Z" fill="#53AA48"/>
<path d="M64.3858 47.2351C65.815 46.7349 66.8869 46.592 67.6015 45.9489C67.8873 45.663 67.7444 44.0909 67.3871 43.9479C66.7439 43.5906 65.2433 43.5192 64.9574 43.8765C64.4572 44.5196 64.6001 45.663 64.3858 47.2351ZM33.8722 45.3057C33.5863 45.3057 33.3719 45.3057 33.0861 45.3057C32.7288 46.6635 32.2286 48.0212 31.9427 49.4504C31.7284 50.6652 32.7288 50.6652 33.5863 50.6652C34.4438 50.6652 35.2299 50.4508 35.0155 49.3789C34.7297 48.0212 34.2295 46.6635 33.8722 45.3057ZM71.1745 35.5156C71.103 35.6586 71.103 35.8015 71.0316 35.9444C72.3179 36.659 73.6041 37.9453 74.9619 38.0882C77.9632 38.4455 80.9645 38.1597 83.9659 38.1597C83.9659 36.0159 83.7515 35.5156 82.7511 35.5156C81.2504 35.4442 79.6783 35.5156 78.1776 35.5156C78.2491 35.6586 78.3205 35.73 78.392 35.8729C77.8918 36.3732 77.3201 36.9448 76.8198 37.4451C76.3196 36.9448 75.8909 36.4446 75.3906 35.9444C75.1763 35.73 74.9619 35.5156 74.676 35.5156C73.5327 35.5156 72.3179 35.5156 71.1745 35.5156ZM19.0084 39.0886C17.3648 41.0181 16.7931 43.1619 16.4358 45.3057C16.15 46.9493 16.6502 47.5924 18.2938 47.7354C19.0084 47.8068 19.8659 47.7353 20.5091 47.521C20.9378 47.378 21.5095 46.8064 21.5095 46.3776C21.581 43.7336 20.8664 41.3754 19.0084 39.0886ZM22.0097 76.6768C22.2956 76.0337 22.5099 75.6049 22.7243 75.1761C24.0821 72.0319 24.0821 72.0319 21.2237 70.1025C18.8655 68.5303 16.3644 67.244 13.0772 66.458C15.5783 70.6027 18.4367 73.8184 22.0097 76.6768ZM75.5336 40.7322C75.5336 42.3758 75.4621 43.805 75.5336 45.2342C75.5336 45.5201 76.0338 46.0918 76.2482 46.0918C79.1066 46.3061 81.965 46.4491 85.1093 46.592C84.9664 44.8055 84.8949 43.0904 84.6805 41.3754C84.6805 41.161 84.2518 40.7322 84.0374 40.7322C81.2504 40.7322 78.4634 40.7322 75.5336 40.7322ZM70.174 46.0918C72.8895 46.5205 72.961 46.4491 72.961 44.0909C72.961 43.0904 73.0324 42.1614 72.8895 41.161C72.8181 40.6608 72.5322 40.0176 72.1035 39.6603C70.4599 38.4455 68.7448 37.3736 66.9583 36.3732C66.5296 36.0873 65.672 36.0873 65.2433 36.3732C63.4567 37.3736 61.7417 38.517 60.0981 39.6603C59.8123 39.8747 59.3835 40.232 59.3121 40.5179C59.2406 42.876 59.3121 45.3057 59.3121 47.6639C62.099 47.5924 62.099 47.5924 62.099 45.0913C62.099 44.3767 62.099 43.6621 62.099 42.9475C62.0276 41.7327 62.5278 41.161 63.814 41.161C65.3147 41.2325 66.8869 41.2325 68.3875 41.161C69.7453 41.0895 70.2455 41.8041 70.174 43.019C70.174 44.0909 70.174 45.0913 70.174 46.0918ZM10.5046 60.7411C11.0763 63.2423 11.2192 63.1708 13.1487 63.814C15.7212 64.6715 18.2223 65.6004 20.652 66.8153C22.2956 67.6013 23.7248 68.8162 25.2969 69.8166C26.5118 68.173 27.7266 66.458 29.0129 64.6715C23.1531 61.5987 17.079 60.3124 10.5046 60.7411ZM9.07541 56.6679C9.21833 58.3115 9.21835 58.383 10.4332 58.3115C17.4363 57.8113 24.0106 59.169 30.1562 62.4562C30.4421 62.5991 31.0137 62.742 31.2281 62.5277C32.8003 61.1699 34.3724 59.8122 36.0874 58.24C27.0834 54.4526 18.2223 53.9524 9.07541 56.6679ZM52.2375 84.6089C63.3853 84.6804 80.7502 70.3883 82.4652 59.7407C71.5318 57.311 52.5233 72.818 52.2375 84.6089ZM84.3232 53.9524C83.5371 53.8809 83.0369 53.8095 82.5367 53.8095C74.0329 53.6666 65.9579 55.5246 58.3116 59.2405C49.522 63.5281 42.3759 69.6022 37.8739 78.5348C37.0879 80.1784 36.5162 81.8934 35.7301 83.7514C36.4447 83.9658 36.8735 84.1802 37.3023 84.2516C40.8038 84.6089 44.3054 84.9662 47.8069 85.3235C49.0218 85.4665 49.522 84.8948 49.6649 83.6799C49.8078 82.5366 50.1651 81.4647 50.5224 80.3927C54.8101 67.5299 68.7448 56.6679 82.3223 57.0967C83.1798 57.0967 83.68 56.8823 83.823 55.9533C84.0373 55.3816 84.1803 54.7385 84.3232 53.9524ZM33.229 83.3226C33.5863 82.5366 33.6578 82.3222 33.7292 82.1078C35.8016 75.6049 39.5175 70.1739 44.5197 65.6719C55.3817 55.8819 68.1731 51.2369 82.7511 51.3084C83.5371 51.3084 84.6805 51.9515 84.8949 50.3794C85.1092 48.6643 83.68 49.1646 82.894 49.0216C76.6769 48.2356 70.5314 48.45 64.3858 49.4504C53.3094 51.2369 43.3049 55.3102 34.8011 62.8135C30.2991 66.7438 26.7976 71.4602 24.7253 77.1056C24.5823 77.5344 24.5823 78.5348 24.8681 78.6777C27.5122 80.3213 30.2991 81.7505 33.229 83.3226ZM82.7511 32.9431C77.6774 20.5804 69.1736 12.291 56.5966 9.00382C41.2326 4.93058 27.798 9.00383 17.1504 20.8663C8.64664 30.299 6.07407 41.5898 8.21788 54.0953C11.0763 53.5951 13.7203 53.1664 16.2929 52.6661C16.7931 52.5947 17.5077 52.1659 17.7221 51.7372C18.0079 50.8796 17.7221 50.2365 16.6502 49.9506C14.6493 49.3075 13.7918 47.9497 13.8633 45.8774C14.0062 43.1619 14.7922 40.5893 16.3644 38.374C17.9365 36.1588 20.2232 36.0159 21.581 38.374C22.7243 40.3749 23.5104 42.6617 24.0821 44.9484C24.7252 47.5924 23.7248 49.1646 21.1522 50.0935C20.1518 50.4508 20.1518 51.1655 20.3661 51.8086C20.4376 52.1659 21.1522 52.4517 21.581 52.5232C24.7252 53.0234 27.941 53.4522 31.1567 53.9524C31.514 54.0239 31.8713 53.9524 32.2286 53.9524C32.3001 53.8095 32.3 53.6666 32.3715 53.5237C32.0142 53.3093 31.7284 53.0234 31.3711 52.8805C30.2277 52.3088 29.5845 51.3798 29.5845 50.0221C29.5131 47.7353 30.1562 45.663 31.4425 43.805C32.6573 42.0185 34.6582 42.0185 35.7301 43.8765C36.5877 45.3772 37.1593 47.1637 37.5166 48.8787C37.9454 50.6652 37.3737 52.2374 35.5158 53.0234C35.1585 53.1664 34.8726 53.8095 34.8726 54.2383C34.8726 54.667 35.3014 55.0958 35.6587 55.3816C36.3018 55.8104 37.0164 56.0962 37.8025 56.3106C38.3742 56.4535 39.1602 56.4535 39.589 56.1677C44.5912 53.0234 49.9508 50.5938 55.6676 49.0216C56.668 48.7358 56.9539 48.2356 56.8824 47.2351C56.811 44.9484 56.8824 42.5902 56.8824 40.3035C56.8824 39.2316 57.2397 38.5884 58.1687 38.0167C60.3125 36.7305 62.3848 35.2298 64.5287 34.015C65.3862 33.5147 66.5296 33.1574 67.53 33.1574C70.174 33.0145 72.8181 33.086 75.605 33.086C75.605 32.2999 75.4621 31.6568 75.6765 31.228C75.8909 30.6563 76.4626 30.2276 76.8913 29.7273C77.3201 30.2276 77.8917 30.6563 78.1061 31.228C78.3205 31.7282 78.1776 32.3714 78.2491 33.0145H82.7511V32.9431ZM46.3063 5.00204C69.1736 5.0735 87.6104 23.5817 87.6104 46.592C87.6104 69.4593 69.1021 87.8961 46.2348 87.8961C23.4389 87.8246 4.9307 69.3164 5.00216 46.4491C5.00216 23.5817 23.5819 4.93058 46.3063 5.00204Z" fill="#53AA48"/>
<path d="M260.615 86.3956H289.7V76.1767H282.84L276.408 85.1807H273.478V67.7444H273.55L282.482 74.3188H282.84V60.5269H282.482L273.55 67.0298H273.478V49.8793H276.408L282.84 58.8833H289.7V48.6645H260.615V48.7359L263.188 51.8802V83.2513L260.615 86.3956ZM234.818 86.3956H254.827L261.973 76.1767H250.325L243.822 85.1093C238.034 84.6805 240.392 80.4644 241.393 79.1066L247.681 70.6028V51.8802L250.254 48.7359V48.6645H234.818V48.7359L237.391 51.8802V83.2513L234.818 86.3956ZM217.453 69.7453C221.241 68.7449 223.242 64.7431 223.242 59.7408C223.242 54.8101 221.169 49.8793 217.453 49.8793H217.382V69.7453H217.453ZM204.662 86.3956L207.235 83.2513V51.8802L204.662 48.7359V48.6645H220.526C229.959 48.6645 234.675 52.7377 234.675 59.7408C234.675 66.8154 229.959 70.9601 220.669 70.9601H217.525V83.1799L220.097 86.3241V86.3956H204.662ZM179.294 67.53C179.294 77.7489 182.223 85.538 185.796 85.538C189.369 85.538 192.299 77.7489 192.299 67.53C192.299 57.3112 189.369 49.522 185.796 49.522C182.223 49.522 179.294 57.3112 179.294 67.53ZM167.931 67.53C167.931 56.5251 175.935 48.2357 185.796 48.2357C195.586 48.2357 203.661 56.5251 203.661 67.53C203.661 78.5349 195.658 86.8243 185.796 86.8243C176.006 86.8243 167.931 78.5349 167.931 67.53ZM138.347 86.3956H167.431V76.1767H160.571L154.139 85.1807H151.21V67.7444H151.281L160.214 74.3188H160.571V60.5269H160.214L151.281 67.0298H151.21V49.8793H154.139L160.571 58.8833H167.431V48.6645H138.347V48.7359L140.919 51.8802V83.2513L138.347 86.3956ZM120.982 69.7453C124.769 68.7449 126.77 64.7431 126.77 59.7408C126.77 54.8101 124.698 49.8793 120.982 49.8793H120.91V69.7453H120.982ZM108.19 86.3956L110.763 83.2513V51.8802L108.19 48.7359V48.6645H124.055C133.487 48.6645 138.204 52.7377 138.204 59.7408C138.204 66.8154 133.487 70.9601 124.198 70.9601H121.053V83.1799L123.626 86.3241V86.3956H108.19Z" fill="#53AA48"/>
<path d="M263.474 44.0911H288.056V34.9442H272.835C275.836 32.0143 281.053 29.1559 283.626 26.0831C286.341 22.9388 287.556 19.6517 287.556 16.6503C287.556 10.6477 282.84 5.93127 275.836 5.93127C268.476 5.93127 262.188 10.076 262.188 17.222C262.188 18.8656 262.545 20.6521 263.117 22.4386H263.188C263.259 16.6503 267.619 13.1488 271.763 13.1488C275.765 13.1488 278.409 16.3645 278.409 20.4377C278.409 24.8683 275.336 29.799 271.692 34.3725C268.833 38.017 265.761 41.3756 263.474 44.0911ZM195.872 44.0911H211.451V44.0196L204.233 36.0161V15.1497L219.74 44.0911H219.812L233.246 15.0067V40.8754L230.674 44.0196V44.0911H246.109V44.0196L243.465 40.8754V13.0773L247.109 6.36004V6.28858H235.962L224.957 30.0134L212.38 6.28858H199.374V6.36004L203.018 13.0773V36.0161L195.872 44.0911ZM180.365 26.7262V7.57485H180.437C184.153 7.57485 186.225 12.5056 186.225 17.0791C186.154 21.6526 184.081 26.7262 180.365 26.7262ZM167.503 44.0911H182.938V44.0196L180.365 40.8754V31.5855C181.366 34.9442 183.295 37.7311 185.796 39.8035C189.012 42.519 193.014 44.0196 197.302 44.0196V30.728H184.081C182.08 30.728 180.294 29.6561 180.294 27.9411H180.651C191.871 27.9411 197.444 25.0112 197.444 17.0791C197.444 10.3618 192.728 6.36004 183.295 6.36004H167.431V6.43148L170.004 9.71867V40.7325L167.503 44.0911ZM139.776 29.6561L145.35 12.1483L151.567 29.6561H139.776ZM129.271 44.0911H144.135V44.0196L137.489 36.4448L139.276 30.7995H151.924L155.64 41.0183L152.925 43.9482V44.0196H168.003V43.8767L154.211 6.21711H143.349V6.28858L144.707 10.076L136.203 36.3734L129.271 44.0911ZM108.19 44.0911H123.626V44.0196L121.053 40.8754V25.44H121.125L130.057 32.0143H130.415V18.2224H130.057L121.125 24.7253H121.053V7.57485H123.983L130.415 16.5789H137.275V6.36004H108.19V6.43148L110.763 9.57576V40.8754L108.19 44.0911Z" fill="#53AA48"/>
<path d="M37.9453 15.6501C35.3727 15.7216 33.3004 17.9368 33.3004 20.5809C33.3718 23.1534 35.5156 25.2973 38.0167 25.2258C40.5893 25.1543 42.7331 22.8676 42.6616 20.295C42.6616 17.651 40.5179 15.5786 37.9453 15.6501ZM38.2311 13.149C42.1614 13.2205 45.2342 16.3647 45.1628 20.4379C45.0913 24.5826 41.8756 27.7269 37.7309 27.6554C33.8005 27.584 30.6563 24.3683 30.7278 20.3665C30.8707 16.2932 34.1579 13.0775 38.2311 13.149Z" fill="#53AA48"/>
<path d="M48.379 45.7348C48.0931 46.0207 47.7358 46.6638 47.3785 46.6638C46.8783 46.6638 46.1637 46.3065 45.9493 45.8778C45.3776 44.8773 45.0918 43.6625 44.663 42.5906C43.4482 39.1605 42.1619 35.7304 40.9471 32.3003C40.6612 31.4428 40.3754 30.5138 41.5188 30.1565C42.5192 29.7992 42.948 30.5852 43.3053 31.4428C44.8774 35.8018 46.4495 40.2324 48.0931 44.5915C48.1646 44.8773 48.236 45.1631 48.379 45.7348Z" fill="#53AA48"/>
<path d="M60.8129 31.8714C60.1698 31.657 59.8124 31.5141 59.5266 31.3712C55.8821 29.8705 52.2377 28.2983 48.6647 26.7977C47.8071 26.4404 47.0211 25.9402 47.4498 24.8683C47.8786 23.8678 48.7361 24.0822 49.5222 24.4395C53.3096 26.0116 57.097 27.5837 60.8129 29.2988C61.3131 29.5132 61.7419 30.2992 61.8848 30.8709C61.8134 31.0853 61.0988 31.5141 60.8129 31.8714Z" fill="#53AA48"/>
<path d="M28.9407 24.8679C28.4405 25.0823 27.8688 25.2966 27.3686 25.5825C23.7956 27.4405 20.2226 29.3699 16.5781 31.0849C16.0779 31.2993 15.006 31.1564 14.6487 30.7276C14.0055 29.9416 14.6487 29.2984 15.4348 28.9411C19.0078 27.0831 22.5808 25.2252 26.2253 23.3672C27.3686 22.7955 28.3691 23.2957 28.3691 24.2962C28.5834 24.5106 28.7978 24.6535 28.9407 24.8679Z" fill="#53AA48"/>
<path d="M48.8075 17.865C48.4502 17.5077 47.8785 17.1504 47.807 16.7217C47.7356 16.2929 48.0929 15.5068 48.4502 15.3639C51.4515 14.292 54.5243 13.2916 57.5971 12.3626C57.9544 12.2911 58.7405 12.7914 58.8834 13.1487C59.0263 13.506 58.7405 14.435 58.4546 14.5779C55.2389 15.7212 52.0946 16.7217 48.8075 17.865Z" fill="#53AA48"/>
<path d="M34.4437 30.7277C34.2293 31.228 34.0864 31.6567 33.872 32.014C32.6572 34.2293 31.3709 36.3731 30.1561 38.5169C29.6558 39.3745 29.0841 40.0176 28.0837 39.4459C27.1547 38.8742 27.5121 38.0882 27.9408 37.3021C29.2271 35.0154 30.5134 32.7286 31.8711 30.5134C32.157 30.0846 32.943 29.7988 33.4432 29.7273C33.8005 29.7273 34.1579 30.4419 34.4437 30.7277Z" fill="#53AA48"/>
</svg>
