<svg width="460" height="58" viewBox="0 0 460 58" fill="none" xmlns="http://www.w3.org/2000/svg">
<path d="M19.0596 55.3676C33.7553 61.4375 50.5808 54.4802 56.6508 39.7845C62.7208 25.0888 55.7634 8.26327 41.0677 2.19331C26.372 -3.87665 9.54647 3.08071 3.47651 17.7764C-2.59345 32.4366 4.36394 49.2976 19.0596 55.3676Z" fill="#2D5496"/>
<path d="M25.8254 48.4961C24.2454 48.2017 22.0227 46.5545 20.8312 44.8348C20.1581 43.6064 19.4246 40.9648 19.2461 38.9147C18.8551 37.7349 18.9403 35.4756 19.4016 33.8349C19.7869 32.7129 21.0125 30.6812 22.0863 29.2712C22.7264 28.4343 24.0398 26.7483 25.0166 25.4869C25.144 25.214 25.5262 24.8107 25.8689 24.6106C26.1904 24.456 26.9061 24.3469 27.4672 24.3318C28.8379 24.7779 31.4733 24.6509 33.3658 24.0387C33.8178 23.7233 34.7974 23.4051 35.5707 23.3506C36.0196 23.3386 36.8869 23.4388 37.5086 23.5905C39.5435 23.6819 43.2038 24.9198 45.7025 26.3911C46.036 26.6853 46.8335 27.1131 47.4461 27.3437C47.7948 27.368 48.374 27.6107 48.7743 27.8807C49.1533 28.1962 49.6688 28.9908 49.9568 29.6793C50.172 30.1676 50.5934 31.223 50.9056 31.9782C51.0815 32.2542 51.2663 32.8669 51.3239 33.337C51.0539 33.7372 50.8748 34.5955 50.8929 35.2687C50.8502 37.0216 49.9943 40.6941 48.9445 43.4173C47.9285 44.0509 47.0215 45.4003 46.9364 46.4132C47.0122 46.7256 46.9029 47.2563 46.6996 47.6323C46.6147 47.8143 46.375 48.0902 46.1658 48.2418C45.1709 48.83 43.0267 49.6848 41.3434 50.1455C40.1697 50.761 37.6373 51.3792 35.7085 51.4759C34.6531 51.4818 32.512 51.2024 30.9533 50.8625C29.1914 50.4831 27.8328 50.0704 26.3985 48.9299L25.8254 48.4961Z" fill="#FF765D"/>
<path d="M33.92 48.4244C32.6069 48.033 31.2847 47.7204 29.9534 47.4867C31.1786 47.5324 32.3916 47.5447 33.6502 47.5783C33.5139 46.6836 33.2987 45.7798 32.9501 44.9245C33.4321 45.7313 34.0022 46.4684 34.6389 47.1811C34.6965 47.2357 34.7663 47.3237 34.8451 47.3328C34.9694 47.3632 35.0786 47.2479 35.1666 47.1782C35.8885 46.4626 36.5771 45.7591 37.299 45.0436C36.8833 45.8744 36.4677 46.7053 36.0854 47.5241C37.6686 47.0998 39.2881 46.7756 40.944 46.5514C39.837 47.1426 38.7087 47.7793 37.6017 48.3705C36.6827 48.8555 35.6302 49.3891 34.6659 49.022" fill="white"/>
<path d="M9.52384 39.2246C9.9766 35.7455 11.0717 32.3761 12.7686 29.3193C14.2817 26.5921 16.344 23.8193 16.0973 20.7033C16.0206 19.7506 15.7315 18.8362 15.6667 17.9169C15.5494 16.6395 15.8356 15.3309 16.1003 14.0677C16.334 12.9287 16.5677 11.7896 16.8134 10.684C16.8539 10.481 16.9064 10.3115 16.9923 10.13C17.1975 9.75506 17.6321 9.59974 18.0093 9.38952C19.1409 8.75885 19.7996 7.54329 20.5634 6.51635C21.3607 5.47745 22.4851 4.51011 23.7793 4.65065C24.7583 4.75307 25.5942 5.50977 26.029 6.40984C26.4973 7.29797 26.6313 8.30558 26.7867 9.26781C26.9996 10.8126 27.172 12.5604 26.1981 13.7379C26.5298 12.9785 26.9164 12.1618 27.6135 11.6864C28.3106 11.2111 29.4568 11.2537 29.8438 12.0201C29.9848 12.309 30.0374 12.6672 30.2667 12.8868C30.6106 13.2162 31.2027 13.0799 31.6779 13.2493C32.4015 13.4808 32.6333 14.3403 32.8962 15.0757C33.1471 15.7776 33.7037 16.5965 34.4414 16.4458C34.4154 17.3221 33.4151 17.7928 32.6391 18.2586C31.221 19.1425 30.3475 20.8118 30.4172 22.4832C31.6994 22.0626 32.7569 21.1192 34.0773 20.9111C35.3642 20.7149 36.6347 21.3163 37.5972 22.2163C38.5478 23.0828 39.2119 24.2025 39.876 25.3221C40.0862 25.6994 40.2988 26.1888 39.979 26.4539C39.7259 26.6952 39.2961 26.5472 38.9236 26.4542C37.5362 26.1585 36.2447 27.1856 35.1991 28.1625C34.1869 29.1274 33.1294 30.0708 32.1172 31.0358C31.7758 31.3463 31.4345 31.6568 30.9999 31.8121C29.6844 32.2446 28.5331 30.9221 27.3176 30.2634C26.2835 29.6906 25.0132 29.6169 23.9102 30.0112C21.7494 30.8212 20.7114 33.1902 19.0857 34.8644C17.768 36.2401 15.9464 37.1551 15.0395 38.8364C14.5097 39.7797 14.1232 41.1241 13.0488 41.282C12.724 41.3227 12.3634 41.2631 12.0244 41.1581C11.0525 40.8646 10.164 40.2775 9.5072 39.4945" fill="#53AA48"/>
<path d="M7.45167 33.9362L7.3662 36.2818L6.54436 34.0976L4.82147 35.6776L5.77988 33.524L3.43436 33.4385L5.61847 32.6167L4.03851 30.8938L6.19214 31.8522L6.27761 29.5066L7.09945 31.6908L8.8258 30.0755L7.86736 32.2291L10.2129 32.3146L8.02877 33.1364L9.60876 34.8593L7.45167 33.9362Z" fill="white"/>
<path d="M6.27974 24.3705L7.11358 20.5642L7.81331 20.7036L7.10855 23.9162L7.80828 24.0555L8.45367 21.0868L9.11806 21.2228L8.47267 24.1915L9.86869 24.5056L9.73617 25.1347L6.27974 24.3705Z" fill="white"/>
<path d="M8.67703 16.9366L12.7552 16.4417L12.8578 16.4873L12.5452 17.1345L11.4647 17.2434L10.3546 19.4893L10.9046 20.4344L10.5921 21.0816L10.4576 20.9972L8.37473 17.4778L8.67703 16.9366ZM9.12353 17.4793L9.92186 18.8052L10.6349 17.341L9.12353 17.4793Z" fill="white"/>
<path d="M13.802 15.2236L13.3653 15.6804L10.7804 13.2891L12.971 10.9343C13.5696 10.2793 14.1521 10.1576 14.708 10.6753C15.2002 11.1155 15.1133 11.642 14.6663 12.2048L16.3302 12.331L16.4294 12.412L15.9116 12.9679L14.2158 12.803L12.7824 14.3398L13.802 15.2236ZM13.5441 11.2754L11.7093 13.2725L12.2971 13.829L14.1319 11.8319C14.4489 11.5061 14.4377 11.2553 14.2747 11.0968C14.1118 10.9383 13.8611 10.9496 13.5441 11.2754Z" fill="white"/>
<path d="M19.5311 10.2168L16.5252 8.85451L17.8347 11.1574L17.2704 11.4592L15.5384 8.36623L16.2156 8.00412L19.3594 9.41549L19.7987 5.99879L20.4759 5.63668L22.2079 8.72963L21.6436 9.03138L20.334 6.72847L19.9472 9.97197L19.5311 10.2168Z" fill="white"/>
<path d="M23.1309 7.67818L24.8857 6.13697C25.1993 5.84649 25.3224 5.68013 25.2758 5.42595C25.1939 5.16833 24.8863 5.03141 24.2685 5.14965C23.792 5.28162 23.45 5.49802 23.1089 6.07114L22.5996 5.8076C22.8484 5.08285 23.4618 4.64322 24.1218 4.45777C25.0359 4.2257 25.7219 4.50641 25.8971 5.2724C26.0757 6.00305 25.5226 6.55554 23.9994 7.54865L26.3784 6.9241L26.5604 7.61942L23.3095 8.40883L23.1309 7.67818Z" fill="white"/>
<path d="M27.6489 3.76691L30.676 3.81168C31.6721 3.83724 32.1324 4.23866 32.0956 4.98403C32.0975 5.6975 31.6289 6.11556 30.6328 6.09L28.245 6.07174L28.2273 7.35394L27.5879 7.32741L27.6489 3.76691ZM30.7874 4.50015L28.2583 4.46814L28.2431 5.35826L30.7721 5.39027C31.2702 5.40305 31.4675 5.20824 31.4562 4.9575C31.4837 4.67485 31.2854 4.51292 30.7874 4.50015Z" fill="white"/>
<path d="M34.0399 4.0667L37.9669 5.12629L37.7956 5.78726L34.4942 4.89551L34.3195 5.59181L37.483 6.43446L37.3152 7.06009L34.1517 6.21743L33.9348 6.98096L37.2715 7.87614L37.1002 8.53709L33.1378 7.47409L34.0399 4.0667Z" fill="white"/>
<path d="M42.0243 7.01989C43.2731 7.74765 43.8766 8.87628 43.2789 9.88807C42.6846 10.8645 41.4309 10.9209 40.1821 10.1931C38.9333 9.46539 38.3651 8.34021 38.9275 7.32498C39.5218 6.34851 40.7755 6.29213 42.0243 7.01989ZM40.5266 9.5847C41.5031 10.179 42.3579 10.1908 42.7377 9.58578C43.0822 8.97733 42.6563 8.2226 41.6764 7.66366C40.6999 7.06938 39.8451 7.05758 39.4653 7.6626C39.1208 8.27105 39.5501 8.99042 40.5266 9.5847Z" fill="white"/>
<path d="M45.8259 9.7434L47.8946 11.9418C48.5713 12.6853 48.5835 13.2927 48.0373 13.7746C47.4912 14.2564 46.8871 14.2333 46.2105 13.4899L44.5986 11.7282L43.6579 12.5997L43.2399 12.131L45.8259 9.7434ZM47.4829 12.5081L45.7719 10.6654L45.106 11.2783L46.817 13.1209C47.1394 13.4733 47.422 13.5007 47.6193 13.3059C47.8131 13.1465 47.8053 12.8604 47.4829 12.5081Z" fill="white"/>
<path d="M50.0182 14.6802L50.3199 15.2445L47.8016 16.5688L49.2785 19.3516L48.6754 19.6853L46.9287 16.3769L50.0182 14.6802Z" fill="white"/>
<path d="M52.5222 19.7381L53.4936 23.6843L52.8371 23.8344L52.0192 20.5094L51.3239 20.6914L52.0848 23.8682L51.4283 24.0184L50.6673 20.8415L49.9013 21.0167L50.7157 24.377L50.0592 24.5272L49.0912 20.5456L52.5222 19.7381Z" fill="white"/>
<path d="M53.9236 31.5261L56.088 30.6479L54.4232 32.2997L56.5782 33.2404L54.2224 33.2095L55.1007 35.3739L53.4489 33.7091L52.5081 35.8641L52.539 33.5084L50.3746 34.3866L52.0394 32.7349L49.8844 31.7941L52.2402 31.825L51.3619 29.6606L53.0137 31.3254L53.9191 29.1737L53.9236 31.5261Z" fill="white"/>
<rect x="90" y="39" width="148" height="4" fill="#EBD7D0"/>
<rect x="335" y="39" width="123" height="4" fill="#53AA48"/>
<path d="M105.58 23.19H95.35V27.39H103.51V31.38H95.35V39H90.19V19.2H105.58V23.19ZM106.53 39V24H111.03L111.24 27.24C111.6 26.14 112.15 25.28 112.89 24.66C113.65 24.02 114.62 23.7 115.8 23.7C116.18 23.7 116.5 23.74 116.76 23.82C117.04 23.88 117.26 23.95 117.42 24.03L116.91 28.23C116.71 28.17 116.45 28.11 116.13 28.05C115.83 27.99 115.46 27.96 115.02 27.96C114.1 27.96 113.3 28.25 112.62 28.83C111.96 29.41 111.63 30.28 111.63 31.44V39H106.53ZM125.185 23.7C126.765 23.7 128.145 24.01 129.325 24.63C130.525 25.25 131.455 26.14 132.115 27.3C132.795 28.46 133.135 29.86 133.135 31.5C133.135 33.14 132.795 34.54 132.115 35.7C131.455 36.86 130.525 37.75 129.325 38.37C128.145 38.99 126.765 39.3 125.185 39.3C123.625 39.3 122.245 38.99 121.045 38.37C119.865 37.75 118.935 36.86 118.255 35.7C117.595 34.54 117.265 33.14 117.265 31.5C117.265 29.86 117.595 28.46 118.255 27.3C118.935 26.14 119.865 25.25 121.045 24.63C122.245 24.01 123.625 23.7 125.185 23.7ZM125.185 27.33C124.305 27.33 123.615 27.66 123.115 28.32C122.635 28.96 122.395 30.02 122.395 31.5C122.395 32.96 122.635 34.02 123.115 34.68C123.615 35.34 124.305 35.67 125.185 35.67C126.085 35.67 126.775 35.34 127.255 34.68C127.755 34.02 128.005 32.96 128.005 31.5C128.005 30.02 127.755 28.96 127.255 28.32C126.775 27.66 126.085 27.33 125.185 27.33ZM134.804 39V24H139.364L139.514 26.91C139.994 25.85 140.664 25.05 141.524 24.51C142.404 23.97 143.414 23.7 144.554 23.7C145.654 23.7 146.614 23.95 147.434 24.45C148.274 24.95 148.894 25.69 149.294 26.67C149.754 25.69 150.434 24.95 151.334 24.45C152.254 23.95 153.254 23.7 154.334 23.7C155.814 23.7 157.034 24.15 157.994 25.05C158.974 25.93 159.464 27.25 159.464 29.01V39H154.364V30.18C154.364 29.22 154.174 28.55 153.794 28.17C153.414 27.79 152.924 27.6 152.324 27.6C151.564 27.6 150.934 27.89 150.434 28.47C149.934 29.03 149.684 29.87 149.684 30.99V39H144.584V30.18C144.584 29.22 144.394 28.55 144.014 28.17C143.634 27.79 143.144 27.6 142.544 27.6C141.844 27.6 141.224 27.87 140.684 28.41C140.164 28.95 139.904 29.84 139.904 31.08V39H134.804ZM184.98 23.19H174.75V27.39H182.91V31.38H174.75V39H169.59V19.2H184.98V23.19ZM193.393 29.49C193.393 28.79 193.193 28.24 192.793 27.84C192.413 27.42 191.893 27.21 191.233 27.21C190.573 27.21 190.003 27.38 189.523 27.72C189.063 28.04 188.743 28.62 188.563 29.46L184.243 28.44C184.523 27 185.263 25.85 186.463 24.99C187.663 24.13 189.353 23.7 191.533 23.7C193.733 23.7 195.433 24.19 196.633 25.17C197.853 26.13 198.463 27.54 198.463 29.4V34.89C198.463 35.67 198.813 36.06 199.513 36.06C199.873 36.06 200.163 36.02 200.383 35.94L200.083 38.85C199.483 39.13 198.753 39.27 197.893 39.27C196.953 39.27 196.143 39.09 195.463 38.73C194.783 38.35 194.323 37.78 194.083 37.02C193.663 37.8 192.993 38.38 192.073 38.76C191.173 39.12 190.213 39.3 189.193 39.3C187.653 39.3 186.423 38.95 185.503 38.25C184.603 37.53 184.153 36.5 184.153 35.16C184.153 34.08 184.473 33.19 185.113 32.49C185.773 31.77 186.803 31.27 188.203 30.99L193.393 29.91V29.49ZM189.193 34.68C189.193 35.12 189.353 35.45 189.673 35.67C189.993 35.89 190.373 36 190.813 36C191.493 36 192.093 35.8 192.613 35.4C193.133 34.98 193.393 34.33 193.393 33.45V32.61L190.963 33.12C190.363 33.24 189.913 33.42 189.613 33.66C189.333 33.88 189.193 34.22 189.193 34.68ZM201.196 39V24H205.696L205.906 27.24C206.266 26.14 206.816 25.28 207.556 24.66C208.316 24.02 209.286 23.7 210.466 23.7C210.846 23.7 211.166 23.74 211.426 23.82C211.706 23.88 211.926 23.95 212.086 24.03L211.576 28.23C211.376 28.17 211.116 28.11 210.796 28.05C210.496 27.99 210.126 27.96 209.686 27.96C208.766 27.96 207.966 28.25 207.286 28.83C206.626 29.41 206.296 30.28 206.296 31.44V39H201.196ZM212.886 39V24H217.446L217.596 26.91C218.076 25.85 218.746 25.05 219.606 24.51C220.486 23.97 221.496 23.7 222.636 23.7C223.736 23.7 224.696 23.95 225.516 24.45C226.356 24.95 226.976 25.69 227.376 26.67C227.836 25.69 228.516 24.95 229.416 24.45C230.336 23.95 231.336 23.7 232.416 23.7C233.896 23.7 235.116 24.15 236.076 25.05C237.056 25.93 237.546 27.25 237.546 29.01V39H232.446V30.18C232.446 29.22 232.256 28.55 231.876 28.17C231.496 27.79 231.006 27.6 230.406 27.6C229.646 27.6 229.016 27.89 228.516 28.47C228.016 29.03 227.766 29.87 227.766 30.99V39H222.666V30.18C222.666 29.22 222.476 28.55 222.096 28.17C221.716 27.79 221.226 27.6 220.626 27.6C219.926 27.6 219.306 27.87 218.766 28.41C218.246 28.95 217.986 29.84 217.986 31.08V39H212.886ZM242.358 33.84C243.458 33.84 244.268 34.21 244.788 34.95C245.328 35.69 245.598 36.55 245.598 37.53C245.598 38.43 245.398 39.29 244.998 40.11C244.618 40.95 244.108 41.68 243.468 42.3C242.848 42.94 242.168 43.42 241.428 43.74L239.358 42.21C240.178 41.87 240.908 41.41 241.548 40.83C242.208 40.27 242.668 39.67 242.928 39.03L242.778 38.94C242.658 39.02 242.518 39.08 242.358 39.12C242.218 39.16 242.018 39.18 241.758 39.18C241.218 39.18 240.678 38.98 240.138 38.58C239.618 38.18 239.358 37.56 239.358 36.72C239.358 35.78 239.658 35.07 240.258 34.59C240.878 34.09 241.578 33.84 242.358 33.84ZM353.347 19.2L353.017 20.58H345.997L341.737 39H340.237L344.497 20.58H337.357L337.717 19.2H353.347ZM355.553 39.27C354.133 39.27 352.923 38.97 351.923 38.37C350.943 37.75 350.193 36.93 349.673 35.91C349.173 34.87 348.923 33.74 348.923 32.52C348.923 30.8 349.243 29.28 349.883 27.96C350.543 26.64 351.443 25.61 352.583 24.87C353.723 24.11 355.053 23.73 356.573 23.73C357.993 23.73 359.193 24.04 360.173 24.66C361.153 25.26 361.893 26.07 362.393 27.09C362.913 28.09 363.173 29.21 363.173 30.45C363.173 32.15 362.853 33.67 362.213 35.01C361.573 36.33 360.683 37.37 359.543 38.13C358.403 38.89 357.073 39.27 355.553 39.27ZM355.613 37.98C356.773 37.98 357.803 37.67 358.703 37.05C359.623 36.41 360.343 35.53 360.863 34.41C361.383 33.29 361.643 31.99 361.643 30.51C361.643 28.91 361.193 27.6 360.293 26.58C359.413 25.54 358.153 25.02 356.513 25.02C355.353 25.02 354.313 25.33 353.393 25.95C352.473 26.57 351.753 27.44 351.233 28.56C350.713 29.68 350.453 30.98 350.453 32.46C350.453 34.06 350.903 35.38 351.803 36.42C352.703 37.46 353.973 37.98 355.613 37.98ZM372.884 39L377.474 19.2H382.934C384.874 19.2 386.404 19.67 387.524 20.61C388.664 21.55 389.234 22.82 389.234 24.42C389.234 25.7 388.924 26.84 388.304 27.84C387.704 28.82 386.844 29.6 385.724 30.18C384.604 30.74 383.264 31.02 381.704 31.02H376.244L374.384 39H372.884ZM382.844 20.58H378.674L376.574 29.61H382.034C383.254 29.61 384.284 29.38 385.124 28.92C385.964 28.46 386.594 27.85 387.014 27.09C387.454 26.31 387.674 25.45 387.674 24.51C387.674 23.31 387.254 22.36 386.414 21.66C385.594 20.94 384.404 20.58 382.844 20.58ZM395.895 39.27C394.495 39.27 393.315 38.97 392.355 38.37C391.395 37.77 390.655 36.96 390.135 35.94C389.635 34.9 389.385 33.76 389.385 32.52C389.385 30.96 389.685 29.51 390.285 28.17C390.885 26.83 391.765 25.76 392.925 24.96C394.085 24.14 395.485 23.73 397.125 23.73C398.325 23.73 399.345 23.99 400.185 24.51C401.045 25.03 401.705 25.74 402.165 26.64C402.625 27.52 402.855 28.53 402.855 29.67C402.855 30.29 402.765 30.95 402.585 31.65H390.945C390.905 31.95 390.885 32.25 390.885 32.55C390.885 34.13 391.345 35.43 392.265 36.45C393.205 37.47 394.455 37.98 396.015 37.98C397.155 37.96 398.125 37.7 398.925 37.2C399.745 36.7 400.395 36.04 400.875 35.22L402.075 36C401.435 36.96 400.595 37.75 399.555 38.37C398.515 38.97 397.295 39.27 395.895 39.27ZM397.035 25.02C395.915 25.02 394.955 25.26 394.155 25.74C393.355 26.22 392.695 26.86 392.175 27.66C391.675 28.46 391.325 29.36 391.125 30.36H401.355C401.375 30.12 401.385 29.88 401.385 29.64C401.385 28.32 401.005 27.22 400.245 26.34C399.485 25.46 398.415 25.02 397.035 25.02ZM411.251 39.27C409.831 39.27 408.621 38.97 407.621 38.37C406.641 37.75 405.891 36.93 405.371 35.91C404.871 34.87 404.621 33.74 404.621 32.52C404.621 30.8 404.941 29.28 405.581 27.96C406.241 26.64 407.141 25.61 408.281 24.87C409.421 24.11 410.751 23.73 412.271 23.73C413.691 23.73 414.891 24.04 415.871 24.66C416.851 25.26 417.591 26.07 418.091 27.09C418.611 28.09 418.871 29.21 418.871 30.45C418.871 32.15 418.551 33.67 417.911 35.01C417.271 36.33 416.381 37.37 415.241 38.13C414.101 38.89 412.771 39.27 411.251 39.27ZM411.311 37.98C412.471 37.98 413.501 37.67 414.401 37.05C415.321 36.41 416.041 35.53 416.561 34.41C417.081 33.29 417.341 31.99 417.341 30.51C417.341 28.91 416.891 27.6 415.991 26.58C415.111 25.54 413.851 25.02 412.211 25.02C411.051 25.02 410.011 25.33 409.091 25.95C408.171 26.57 407.451 27.44 406.931 28.56C406.411 29.68 406.151 30.98 406.151 32.46C406.151 34.06 406.601 35.38 407.501 36.42C408.401 37.46 409.671 37.98 411.311 37.98ZM418.664 45.3L423.584 24H424.904L424.304 27C424.844 25.96 425.614 25.16 426.614 24.6C427.614 24.02 428.724 23.73 429.944 23.73C431.084 23.73 432.084 24.01 432.944 24.57C433.824 25.13 434.494 25.91 434.954 26.91C435.434 27.91 435.674 29.06 435.674 30.36C435.674 32.02 435.354 33.53 434.714 34.89C434.094 36.23 433.224 37.3 432.104 38.1C430.984 38.9 429.674 39.3 428.174 39.3C426.614 39.3 425.344 38.86 424.364 37.98C423.404 37.1 422.824 35.95 422.624 34.53L420.164 45.3H418.664ZM428.204 38.01C429.364 38.01 430.394 37.68 431.294 37.02C432.194 36.34 432.904 35.42 433.424 34.26C433.944 33.1 434.204 31.8 434.204 30.36C434.204 28.68 433.754 27.37 432.854 26.43C431.974 25.49 430.854 25.02 429.494 25.02C428.254 25.02 427.174 25.37 426.254 26.07C425.354 26.75 424.644 27.68 424.124 28.86C423.624 30.04 423.374 31.38 423.374 32.88C423.374 34.44 423.804 35.69 424.664 36.63C425.524 37.55 426.704 38.01 428.204 38.01ZM440.312 39.24C439.132 39.24 438.322 38.87 437.882 38.13C437.442 37.37 437.372 36.34 437.672 35.04L441.842 17.1H443.342L439.142 35.13C438.722 36.99 439.292 37.92 440.852 37.92C441.452 37.92 441.952 37.86 442.352 37.74L441.992 38.94C441.532 39.14 440.972 39.24 440.312 39.24ZM450.685 39.27C449.285 39.27 448.105 38.97 447.145 38.37C446.185 37.77 445.445 36.96 444.925 35.94C444.425 34.9 444.175 33.76 444.175 32.52C444.175 30.96 444.475 29.51 445.075 28.17C445.675 26.83 446.555 25.76 447.715 24.96C448.875 24.14 450.275 23.73 451.915 23.73C453.115 23.73 454.135 23.99 454.975 24.51C455.835 25.03 456.495 25.74 456.955 26.64C457.415 27.52 457.645 28.53 457.645 29.67C457.645 30.29 457.555 30.95 457.375 31.65H445.735C445.695 31.95 445.675 32.25 445.675 32.55C445.675 34.13 446.135 35.43 447.055 36.45C447.995 37.47 449.245 37.98 450.805 37.98C451.945 37.96 452.915 37.7 453.715 37.2C454.535 36.7 455.185 36.04 455.665 35.22L456.865 36C456.225 36.96 455.385 37.75 454.345 38.37C453.305 38.97 452.085 39.27 450.685 39.27ZM451.825 25.02C450.705 25.02 449.745 25.26 448.945 25.74C448.145 26.22 447.485 26.86 446.965 27.66C446.465 28.46 446.115 29.36 445.915 30.36H456.145C456.165 30.12 456.175 29.88 456.175 29.64C456.175 28.32 455.795 27.22 455.035 26.34C454.275 25.46 453.205 25.02 451.825 25.02Z" fill="#373737"/>
<path d="M301.903 40.5781C301.852 40.2391 301.801 39.9484 301.75 39.6094C307.504 36.5094 313.257 33.4094 319.01 30.3578C318.909 30.0672 318.756 29.825 318.654 29.5344C312.391 31.9563 306.129 34.3297 298.492 37.2359C303.278 30.6969 307.096 25.4656 310.915 20.1859C310.66 19.9922 310.406 19.7984 310.151 19.6531C305.671 24.3516 301.19 29.05 295.691 34.8141C296.964 26.725 298.033 20.0891 299.052 13.5016C298.797 13.4531 298.543 13.4047 298.288 13.3562C296.251 19.7984 294.215 26.2406 291.771 33.9422C289.174 25.8047 286.985 18.8781 284.796 12C284.592 12.0484 284.337 12.1453 284.134 12.1937C285.407 19.314 286.628 26.4344 288.156 35.0078C282.657 29.3891 278.278 24.8844 273.9 20.3797C273.645 20.5734 273.391 20.7672 273.136 20.9609C276.802 25.95 280.417 30.9391 284.083 35.8797C283.777 36.0734 283.472 36.2672 283.166 36.4609C276.598 33.8937 270.03 31.375 263.513 28.8078C263.411 29.05 263.259 29.2922 263.157 29.5344C269.419 32.8766 275.733 36.2672 281.995 39.6094C281.893 39.9 281.842 40.239 281.741 40.5297C274.511 40.9656 267.23 41.45 260 41.8859C260 42.0797 260.051 42.3219 260.051 42.5156C262.749 42.6609 265.397 42.8547 268.095 43H315.752C318.501 42.8547 321.2 42.6609 323.949 42.5156C323.949 42.3219 323.949 42.1281 324 41.8859C316.617 41.5469 309.235 41.0625 301.903 40.5781Z" fill="#FF765D"/>
</svg>
