<svg width="55" height="55" viewBox="0 0 55 55" fill="none" xmlns="http://www.w3.org/2000/svg">
<rect width="55" height="55" rx="5" fill="#2D5496"/>
<path d="M35.9585 12.0068L31.7317 12C26.9832 12 23.9144 15.148 23.9144 20.0204V23.7184H19.6646C19.2974 23.7184 19 24.0161 19 24.3833V29.7412C19 30.1084 19.2977 30.4057 19.6646 30.4057H23.9144V43.9255C23.9144 44.2927 24.2118 44.59 24.579 44.59H30.1238C30.491 44.59 30.7884 44.2923 30.7884 43.9255V30.4057H35.7574C36.1246 30.4057 36.422 30.1084 36.422 29.7412L36.424 24.3833C36.424 24.207 36.3539 24.0381 36.2294 23.9134C36.105 23.7886 35.9354 23.7184 35.7591 23.7184H30.7884V20.5836C30.7884 19.0769 31.1475 18.312 33.1105 18.312L35.9578 18.311C36.3247 18.311 36.6221 18.0133 36.6221 17.6465V12.6713C36.6221 12.3048 36.325 12.0075 35.9585 12.0068Z" fill="white"/>
</svg>
