<svg width="213" height="193" viewBox="0 0 213 193" fill="none" xmlns="http://www.w3.org/2000/svg">
<path d="M49.9057 174.457C36.9527 168.608 23.3729 162.34 14.8072 151.059C6.24155 139.777 4.15234 125.153 2.06315 111.155C0.391793 99.6644 -1.27954 87.756 1.43642 76.4744C4.15237 64.566 11.4646 54.329 18.3589 44.5098C24.6265 35.7351 30.8941 26.7516 37.1616 17.977C38.833 15.6789 40.5043 13.3807 42.8024 11.7094C45.9362 9.82912 49.9057 9.4112 53.4573 9.4112C67.0371 9.20228 80.8258 10.4558 93.5699 5.65068C98.5839 3.77041 103.18 1.05451 108.403 0.218829C112.79 -0.407929 117.387 0.427748 121.774 1.26343C141.203 4.81505 161.051 8.57553 178.391 17.768C182.361 19.8572 186.33 22.3643 190.717 23.8267C193.851 24.8713 197.194 25.498 199.91 27.1693C204.088 29.6764 206.386 34.4816 208.475 38.8689C210.983 44.0919 213.281 49.1059 215.788 54.3289C217.25 57.2537 218.504 60.1787 218.921 63.5214C219.548 68.1176 216.205 72.296 216.623 76.8923C218.713 100.082 212.027 114.08 205.76 133.091C203.67 139.777 193.433 147.089 193.015 154.192C192.807 157.117 193.015 160.042 191.762 162.549C190.926 164.221 189.673 165.683 188.21 166.936C179.436 174.875 167.109 177.591 155.828 181.352C143.293 185.321 130.757 190.753 117.596 192.216C106.732 193.26 95.659 191.38 84.7952 189.5C72.6779 187.411 63.2765 185.112 53.2484 177.8L49.9057 174.457Z" fill="#FFB1D8"/>
<path d="M105.061 171.533C96.0774 169.235 86.885 167.563 82.2888 166.937C79.7818 166.519 79.5728 166.31 81.8709 166.31C86.0493 166.31 94.4061 166.101 98.5845 166.101C100.883 166.101 102.554 164.638 102.136 162.967C101.509 159.833 99.629 153.984 98.3755 151.059C97.7488 149.387 97.9577 149.387 99.0023 150.85C100.256 152.939 104.852 158.58 109.448 162.967C109.657 163.385 110.284 163.803 110.911 163.803C111.537 163.803 112.582 163.176 113 162.549C117.596 157.535 122.192 152.312 124.699 149.805C125.953 148.343 126.371 148.552 125.744 150.223C124.49 153.148 121.983 158.789 120.73 161.714C120.103 163.385 121.775 163.803 124.908 162.967C130.34 161.296 141.204 158.58 146.845 157.535C149.979 156.908 150.814 157.535 148.725 158.789C145.8 160.46 137.652 165.474 130.131 170.07C124.073 173.622 116.969 177.591 110.284 175.293" fill="#EBD7D0"/>
</svg>
