<svg width="159" height="195" viewBox="0 0 159 195" fill="none" xmlns="http://www.w3.org/2000/svg">
<path d="M137.164 101.829C131.494 91.915 123.108 81.55 111.366 80.86C104.855 80.5079 97.6613 83.1163 92.114 79.7016C88.8343 77.6989 87.1201 73.8518 85.5593 70.4278C81.8752 62.0283 77.8966 53.2568 70.8132 47.3666C64.6521 42.2592 55.4251 39.7 47.9494 42.4107C45.4168 36.3068 44.859 29.4868 46.4929 22.9892C44.5445 22.8977 42.404 22.7163 40.4556 22.6248C39.9813 22.6372 39.4559 22.5085 38.9428 22.8541C38.4298 23.1998 38.1601 23.7764 38.0314 24.3018C35.4226 31.6317 36.0176 39.8746 39.5622 46.5691C34.2906 50.0766 32.1932 58.8169 31.8412 65.3285C31.5264 73.2629 31.6595 81.9925 36.1016 88.5212C49.6201 108.197 37.423 115.493 37.9745 129.337C38.4236 142.9 41.2691 157.349 50.7331 167.164C61.1705 177.902 77.96 181.071 93.3825 179.149C107.856 177.253 122.129 171.279 132.252 160.905C142.375 150.531 148.016 135.718 145.568 121.923C144.049 114.654 140.747 108.19 137.164 101.829Z" fill="#53AA48"/>
</svg>
