<svg width="151" height="174" viewBox="0 0 151 174" fill="none" xmlns="http://www.w3.org/2000/svg">
<path d="M1.43175 143.279C5.30398 129.354 11.7732 116.229 20.4042 104.584C28.1933 94.1531 38.1932 84.1435 38.9844 71.1592C39.2716 67.2429 38.6464 63.3056 38.7862 59.3612C39.0311 54.0622 40.9254 48.9244 42.6723 43.7586C44.2789 39.3297 45.9136 34.7534 47.5202 30.3245C47.8078 29.6156 48.1235 28.7593 48.5305 28.2259C49.548 26.8922 51.485 26.3446 53.1273 25.7407C58.082 23.7819 61.5415 19.2475 65.3029 15.5342C69.0642 11.8209 74.2995 8.38806 79.5495 9.69276C83.473 10.745 86.4774 14.2187 87.7202 18.1208C89.1104 22.0509 89.0899 26.1708 89.0695 30.2907C89.0704 36.7056 88.7556 43.9767 84.117 48.2867C85.9133 45.2685 88.0324 42.159 91.0782 40.6005C94.2714 39.07 98.8405 39.9397 100.048 43.2241C100.561 44.5435 100.428 46.0455 101.291 47.1263C102.512 48.7333 105.011 48.4452 106.815 49.3994C109.594 50.8449 110.128 54.4593 110.774 57.4841C111.42 60.509 113.309 64.2285 116.397 64.0526C115.696 67.7374 111.351 68.8961 108.011 70.3985C101.8 73.3401 97.2389 79.6504 96.566 86.3952C101.942 85.4329 107.002 82.1195 112.504 82.0977C117.859 82.0478 122.745 85.2686 126.079 89.416C129.413 93.5634 131.52 98.5463 133.654 103.382C134.258 105.024 134.777 107.108 133.374 108.063C132.146 108.898 130.489 107.972 129.043 107.544C123.492 105.418 117.611 109.034 112.846 112.403C108.08 115.773 103.315 119.142 98.5784 122.365C96.9994 123.439 95.4204 124.513 93.5114 124.913C87.988 125.847 83.9305 119.882 79.3961 116.423C75.5145 113.546 70.3838 112.416 65.5974 113.491C56.3473 115.549 50.6356 124.694 43.0986 130.591C36.8458 135.357 28.9575 138.285 24.249 144.567C21.5754 148.182 19.2109 153.383 14.7683 153.454C13.3856 153.496 11.9398 153.068 10.6974 152.374C6.91419 150.585 3.6502 147.672 1.29148 144.016" fill="#2D5496"/>
</svg>
