<svg width="229" height="258" viewBox="0 0 229 258" fill="none" xmlns="http://www.w3.org/2000/svg">
<path d="M14.562 176.926C14.0221 157.755 27.5813 126.827 44.9091 108.096C47.4937 104.146 54.516 98.5862 60.6028 95.7062C66.2601 94.843 76.7556 91.4421 84.4369 87.9285C90.0213 84.1712 100.688 75.7791 108.642 69.0801C114.182 61.34 126.618 57.0142 136.622 59.3472C137.099 59.7731 138.188 59.8023 138.985 59.4855C139.517 59.2743 140.288 58.5061 140.529 57.9491C142.399 52.5901 140.775 43.0811 136.967 36.5939C134.913 29.1018 126.59 22.8697 118.599 22.5061C114.402 23.5585 111.06 22.117 111.253 19.1172C111.628 17.7374 113.357 16.281 115.243 15.9933C123.157 15.0026 133.711 20.6558 138.87 28.6065C141.539 34.1618 146.105 46.0405 149.058 55.0216C149.109 55.9244 149.717 57.0675 150.565 57.6535C151.122 57.8938 152.237 58.3743 152.979 58.6946C157.861 60.1396 163.741 66.4192 166.25 72.3459C168.351 82.2808 169.524 103.046 169.037 118.471C168.303 126.302 169.567 142.262 171.77 154.003C173.063 157.643 174.319 165.452 174.465 171.241C174.669 174.852 173.723 182.151 172.384 187.299C171.809 194.759 166.283 207.57 159.971 216.078C156.316 223.531 144.988 231.417 134.627 233.995C124.08 236.493 113.093 234.397 102.371 232.195C92.2579 231.136 72.4896 225.913 58.3239 220.464C50.9735 218.615 38.6171 211.524 30.6949 204.363C22.7726 197.203 16.4485 187.869 14.3218 177.483" fill="#FF765D"/>
</svg>
