<svg width="55" height="55" viewBox="0 0 55 55" fill="none" xmlns="http://www.w3.org/2000/svg">
<rect width="55" height="55" rx="5" fill="#FF765D"/>
<path d="M43.5049 20.4761C43.4286 18.7445 43.1485 17.554 42.7473 16.5224C42.3335 15.4274 41.6967 14.4471 40.8625 13.6321C40.0475 12.8045 39.0605 12.1614 37.9781 11.754C36.9404 11.3529 35.756 11.0728 34.0242 10.9965C32.2794 10.9137 31.7255 10.8945 27.3002 10.8945C22.875 10.8945 22.3211 10.9137 20.5828 10.99C18.8509 11.0664 17.6603 11.3467 16.6288 11.7475C15.5335 12.1614 14.553 12.798 13.7379 13.6321C12.9102 14.4471 12.2672 15.4339 11.8596 16.5162C11.4584 17.554 11.1783 18.738 11.102 20.4696C11.0192 22.2142 11 22.768 11 27.1928C11 31.6175 11.0192 32.1713 11.0955 33.9094C11.1719 35.6411 11.4522 36.8315 11.8534 37.8631C12.2672 38.9581 12.9102 39.9384 13.7379 40.7534C14.553 41.581 15.5399 42.2242 16.6224 42.6315C17.6603 43.0327 18.8444 43.3127 20.5765 43.389C22.3146 43.4656 22.8688 43.4845 27.294 43.4845C31.7193 43.4845 32.2732 43.4656 34.0115 43.389C35.7433 43.3127 36.934 43.0327 37.9654 42.6315C40.1559 41.7847 41.8878 40.0531 42.7347 37.8631C43.1356 36.8253 43.4159 35.6411 43.4923 33.9094C43.5686 32.1713 43.5878 31.6175 43.5878 27.1928C43.5878 22.768 43.5813 22.2142 43.5049 20.4761ZM40.5698 33.7821C40.4996 35.3737 40.2323 36.2332 40.0094 36.8062C39.4617 38.226 38.3348 39.3528 36.9148 39.9004C36.3418 40.1232 35.476 40.3906 33.8904 40.4604C32.1712 40.537 31.6556 40.5559 27.3067 40.5559C22.9578 40.5559 22.4357 40.537 20.7228 40.4604C19.131 40.3906 18.2714 40.1232 17.6983 39.9004C16.9917 39.6393 16.3485 39.2254 15.8264 38.6843C15.2852 38.1558 14.8714 37.5192 14.6102 36.8126C14.3873 36.2397 14.12 35.3737 14.0501 33.7886C13.9735 32.0696 13.9546 31.5538 13.9546 27.2054C13.9546 22.8571 13.9735 22.3351 14.0501 20.6226C14.12 19.031 14.3873 18.1715 14.6102 17.5985C14.8714 16.8917 15.2852 16.2489 15.8329 15.7266C16.3612 15.1855 16.9979 14.7716 17.7048 14.5108C18.2778 14.2879 19.1439 14.0206 20.7292 13.9504C22.4484 13.8741 22.9643 13.855 27.3129 13.855C31.6683 13.855 32.1839 13.8741 33.8968 13.9504C35.4886 14.0206 36.3482 14.2879 36.9213 14.5108C37.6279 14.7716 38.2711 15.1855 38.7932 15.7266C39.3344 16.2551 39.7483 16.8917 40.0094 17.5985C40.2323 18.1715 40.4996 19.0372 40.5698 20.6226C40.6461 22.3415 40.6653 22.8571 40.6653 27.2054C40.6653 31.5538 40.6461 32.0631 40.5698 33.7821Z" fill="white"/>
<path d="M27.2988 18.8203C22.6763 18.8203 18.9258 22.5701 18.9258 27.1922C18.9258 31.8144 22.6763 35.5642 27.2988 35.5642C31.9215 35.5642 35.6718 31.8144 35.6718 27.1922C35.6718 22.5701 31.9215 18.8203 27.2988 18.8203ZM27.2988 32.6229C24.2999 32.6229 21.8674 30.191 21.8674 27.1922C21.8674 24.1935 24.2999 21.7616 27.2988 21.7616C30.2979 21.7616 32.7301 24.1935 32.7301 27.1922C32.7301 30.191 30.2979 32.6229 27.2988 32.6229Z" fill="white"/>
<path d="M37.9585 18.4896C37.9585 19.5689 37.0832 20.444 36.0035 20.444C34.9241 20.444 34.0488 19.5689 34.0488 18.4896C34.0488 17.41 34.9241 16.5352 36.0035 16.5352C37.0832 16.5352 37.9585 17.41 37.9585 18.4896Z" fill="white"/>
</svg>
