<svg width="1087" height="199" viewBox="0 0 1087 199" fill="none" xmlns="http://www.w3.org/2000/svg">
<path d="M126.576 127.693C124.265 114.36 119.11 99.4263 106.31 93.9152C99.1985 90.893 90.1319 90.8929 85.3319 84.8485C82.4874 81.2929 82.1319 76.3152 81.7763 71.8707C81.0652 61.0263 80.1763 49.6485 74.6652 40.2263C69.8652 32.0485 60.6208 25.4708 51.1986 25.4708C50.843 17.6485 52.9763 9.82631 57.4208 3.24854C55.2874 2.35965 52.9763 1.29292 50.843 0.404027C50.3097 0.226249 49.7763 -0.129328 49.0652 0.0484499C48.3541 0.226228 47.8208 0.759583 47.4652 1.29292C41.5986 8.40403 38.9319 17.8262 40.1763 26.7151C32.8874 28.4929 27.0208 37.3818 23.9986 44.4929C20.443 53.204 17.0652 62.9818 19.3763 72.0484C26.4874 99.4262 9.95411 102.626 4.97633 118.271C-0.00144662 133.56 -2.66811 150.804 3.90967 165.56C11.1986 181.737 28.6208 192.049 46.5763 196.137C63.4652 199.871 81.7763 198.982 97.243 191.515C112.71 184.048 124.976 169.826 127.821 153.471C129.065 144.76 127.999 136.226 126.576 127.693Z" fill="#FF765D"/>
<path d="M290.971 181.817C292.393 164.751 297.015 148.04 304.482 132.573C311.237 118.706 320.66 104.84 318.704 89.5508C318.171 84.9286 316.571 80.4841 315.86 75.8619C314.971 69.6397 316.037 63.2397 316.926 56.8397C317.815 51.3285 318.704 45.6396 319.593 40.1285C319.771 39.2396 319.948 38.173 320.304 37.4618C321.193 35.6841 323.326 34.6175 325.104 33.5508C330.437 30.173 333.46 24.1286 337.015 18.973C340.571 13.8175 345.904 8.66184 352.304 9.01739C357.104 9.37295 361.371 12.7507 363.682 17.0174C366.171 21.2841 367.06 26.0841 367.948 30.8841C369.371 38.3508 370.615 46.8841 366.171 52.9285C367.593 49.0174 369.371 44.9286 372.571 42.4397C375.948 39.9508 381.46 39.9508 383.593 43.5063C384.482 44.9286 384.66 46.7064 385.904 47.773C387.682 49.373 390.526 48.4841 392.837 49.1952C396.393 50.2619 397.815 54.3508 399.237 57.7285C400.66 61.1063 403.682 65.0174 407.237 64.1285C407.237 68.573 402.437 70.8841 398.882 73.373C392.304 78.173 388.393 86.5286 389.104 94.5286C395.148 92.2175 400.304 87.2397 406.704 85.9953C412.926 84.7508 419.326 87.4174 424.126 91.5063C428.926 95.5952 432.482 100.929 436.037 106.084C437.104 107.862 438.171 110.173 436.748 111.595C435.504 112.84 433.371 112.129 431.593 111.951C424.66 110.706 418.615 116.217 413.815 121.195C409.015 126.173 404.215 131.151 399.415 135.951C397.815 137.551 396.215 139.151 394.082 140.04C387.86 142.351 381.815 136.306 375.771 133.284C370.615 130.795 364.393 130.617 359.06 132.929C348.748 137.373 344.126 149.284 336.66 157.817C330.437 164.751 321.904 169.906 317.815 178.262C315.504 183.062 313.904 189.64 308.748 190.706C307.148 191.062 305.371 190.884 303.771 190.351C298.971 189.106 294.526 186.44 290.971 182.706" fill="#53AA48"/>
<path d="M642.437 166.453C631.415 161.475 619.86 156.142 612.571 146.542C605.282 136.942 603.504 124.497 601.726 112.586C600.304 102.808 598.882 92.6751 601.193 83.0751C603.504 72.9418 609.726 64.2307 615.593 55.8751C620.926 48.4085 626.26 40.764 631.593 33.2973C633.015 31.3418 634.437 29.3862 636.393 27.964C639.06 26.364 642.437 26.0084 645.46 26.0084C657.015 25.8306 668.749 26.8973 679.593 22.8084C683.86 21.2084 687.771 18.8973 692.215 18.1862C695.949 17.6529 699.86 18.364 703.593 19.0751C720.126 22.0973 737.015 25.2973 751.771 33.1195C755.149 34.8973 758.526 37.0306 762.26 38.2751C764.926 39.164 767.771 39.6973 770.082 41.1195C773.637 43.2528 775.593 47.3418 777.371 51.0751C779.504 55.5195 781.46 59.7861 783.593 64.2306C784.837 66.7195 785.904 69.2084 786.26 72.0529C786.793 75.964 783.949 79.5196 784.304 83.4307C786.082 103.164 780.393 115.075 775.06 131.253C773.282 136.942 764.571 143.164 764.215 149.208C764.037 151.697 764.215 154.186 763.149 156.32C762.437 157.742 761.371 158.986 760.126 160.053C752.66 166.808 742.171 169.12 732.571 172.32C721.904 175.697 711.237 180.319 700.037 181.564C690.793 182.453 681.371 180.853 672.126 179.253C661.815 177.475 653.815 175.52 645.282 169.297L642.437 166.453Z" fill="#FFB1D8"/>
<path d="M689.371 163.964C681.726 162.008 673.904 160.586 669.993 160.053C667.86 159.697 667.682 159.519 669.637 159.519C673.193 159.519 680.304 159.341 683.86 159.341C685.815 159.341 687.237 158.097 686.882 156.675C686.349 154.008 684.749 149.03 683.682 146.542C683.149 145.119 683.326 145.119 684.215 146.364C685.282 148.141 689.193 152.941 693.104 156.675C693.282 157.03 693.815 157.386 694.349 157.386C694.882 157.386 695.771 156.853 696.126 156.319C700.037 152.053 703.949 147.608 706.082 145.475C707.149 144.23 707.504 144.408 706.971 145.83C705.904 148.319 703.771 153.119 702.704 155.608C702.171 157.03 703.593 157.386 706.26 156.675C710.882 155.253 720.126 152.941 724.926 152.053C727.593 151.519 728.304 152.053 726.526 153.119C724.037 154.541 717.104 158.808 710.704 162.719C705.549 165.741 699.504 169.119 693.815 167.164" fill="#EBD7D0"/>
<path d="M954.174 173.159C947.063 157.87 947.241 128.181 954.707 107.026C955.418 102.937 959.152 96.0034 963.063 91.559C967.33 88.8923 974.618 82.4923 979.596 76.9812C982.796 72.0034 988.485 61.5145 992.574 53.3368C994.352 45.159 1002.89 37.3367 1011.77 35.7367C1012.31 35.9145 1013.2 35.559 1013.73 35.0257C1014.09 34.6701 1014.44 33.7812 1014.44 33.2479C1014.09 28.2701 1009.46 21.159 1004.13 17.2479C999.863 11.9146 990.974 9.78124 984.396 12.2701C981.374 14.5812 978.174 14.5812 977.285 12.0923C977.107 10.8478 977.996 9.07004 979.418 8.18116C985.463 4.6256 995.952 5.51455 1002.89 10.1368C1006.97 13.6923 1014.8 21.6923 1020.31 27.9146C1020.66 28.6257 1021.55 29.3367 1022.44 29.5145C1022.97 29.5145 1024.04 29.5145 1024.75 29.5145C1029.2 28.9812 1036.13 32.0034 1040.22 35.9146C1045.37 43.2034 1053.55 59.5589 1058.53 72.1812C1060.66 78.7589 1067.24 91.2034 1073.11 99.9146C1075.42 102.403 1079.15 108.27 1081.29 112.892C1082.71 115.737 1084.49 121.959 1085.2 126.581C1087.33 132.803 1087.33 145.07 1085.2 154.137C1084.84 161.426 1078.44 171.737 1070.97 177.426C1063.33 183.115 1053.73 185.248 1044.31 187.203C1035.77 189.87 1018 192.537 1004.66 193.07C998.085 194.137 985.641 192.715 976.752 189.692C967.863 186.67 959.507 181.337 954.174 173.692" fill="#2D5496"/>
</svg>
