<svg width="55" height="55" viewBox="0 0 55 55" fill="none" xmlns="http://www.w3.org/2000/svg">
<rect width="55" height="55" rx="5" fill="#FFB1D8"/>
<path d="M16.7057 11.7422C14.465 11.7422 13 13.2816 13 15.305C13 17.2837 14.4213 18.867 16.6197 18.867H16.6622C18.9467 18.867 20.3684 17.2837 20.3684 15.305C20.3257 13.2816 18.9467 11.7422 16.7057 11.7422Z" fill="white"/>
<path d="M13.3867 21.6807H19.9371V42.3001H13.3867V21.6807Z" fill="white"/>
<path d="M36.0144 21.1992C32.4807 21.1992 30.1112 24.6735 30.1112 24.6735V21.6832H23.5605V42.3026H30.1108V30.7879C30.1108 30.1715 30.1535 29.556 30.3266 29.1152C30.8001 27.8843 31.8777 26.609 33.6874 26.609C36.0577 26.609 37.0057 28.4999 37.0057 31.2718V42.3026H43.5555V30.4798C43.5555 24.1464 40.3238 21.1992 36.0144 21.1992Z" fill="white"/>
</svg>
