<svg width="882" height="90" viewBox="0 0 882 90" fill="none" xmlns="http://www.w3.org/2000/svg">
<path d="M18.4821 0C8.23661 0 0 8.23663 0 18.4822V71.5178C0 81.7634 8.23661 90 18.4821 90H863.438C873.683 90 881.92 81.7634 881.92 71.5178V18.4822C881.92 8.23663 873.683 0 863.438 0H18.4821Z" fill="#EBD7D0"/>
<path d="M81.764 58.8605C79.3532 58.6596 77.1434 58.4587 77.1434 58.2578C77.1434 58.057 77.1434 57.6551 76.9425 57.4542C76.9425 57.2533 78.5497 56.4498 80.3577 55.2445C83.9738 53.2355 91.005 49.2177 94.4202 47.2087C96.4291 46.0034 97.8354 45.1999 97.8354 44.999C97.8354 44.7981 97.6345 44.3962 97.6345 44.1953C97.6345 44.1953 95.8265 44.798 93.6166 45.6016C89.7997 47.2088 81.9649 50.2221 77.3443 52.2311C74.7327 53.2355 73.9291 52.231 75.5363 49.8203C78.5497 45.6016 83.1702 38.7712 85.5809 35.356C86.7863 33.548 87.7907 31.9409 87.7907 31.74C87.5898 31.5391 87.389 31.3381 87.1881 31.3381C87.1881 31.3381 85.7818 32.5435 84.1747 34.3515C81.3622 37.3649 75.9381 43.3918 72.5229 47.2087C70.7148 49.2177 69.5095 48.615 69.9113 45.8025C70.7149 40.5792 71.9202 31.9409 72.7238 27.7221C73.1256 25.3114 73.3265 23.5034 73.1256 23.5034C72.9247 23.5034 72.7238 23.5033 72.5229 23.3024C72.5229 23.3024 71.7193 25.1105 71.1166 27.5213C69.9113 31.74 67.2997 39.9766 65.8934 44.999C65.0899 47.8115 63.6836 47.6105 62.88 44.798C61.2729 39.5748 58.6613 30.5346 57.255 26.115C56.4515 23.7043 55.8488 21.6953 55.8488 21.6953C55.6479 21.6953 55.447 21.8963 55.2461 21.8963C55.2461 21.8963 55.447 23.9052 55.8488 26.5168C56.6524 31.1373 58.2595 40.3784 59.0631 45.8025C59.6657 48.8159 58.4604 49.8203 56.6523 47.8114C53.2372 44.1953 47.8131 38.3694 45.2014 35.356C43.7952 33.7489 42.3889 32.5436 42.3889 32.5436C42.1881 32.7445 41.9872 32.9453 41.7863 33.1462C41.7863 33.1462 42.5898 34.7534 43.7952 36.5614C46.005 39.7757 50.6256 46.2042 52.8354 49.4185C54.0407 51.2265 55.0452 52.6328 54.8443 52.8337C54.6434 53.0346 54.2416 53.2355 54.0407 53.4364C53.8398 53.4364 52.0318 52.8337 49.822 51.8292C45.8041 50.2221 37.7684 46.8069 33.7506 45.1998C31.5407 44.1953 29.7327 43.5926 29.7327 43.7935C29.7327 43.9944 29.5318 44.1953 29.5318 44.3962C29.5318 44.3962 31.1389 45.6016 33.3488 46.8069C37.1657 49.0167 45.0006 53.4364 48.8175 55.4453C51.0273 56.6507 52.6345 57.6551 52.6345 57.856C52.6345 58.0569 52.4336 58.4588 52.4336 58.6597C52.4336 58.8605 50.4247 59.0615 48.014 59.0615C43.5943 59.2624 34.5541 59.865 30.1345 60.2668C27.7238 60.4677 25.7148 60.6686 25.7148 60.6686C25.7148 60.8695 25.7148 61.0703 25.7148 61.2712C25.7148 61.2712 26.5184 61.4721 27.322 61.4721C28.5273 61.4721 32.3443 61.874 35.5586 62.0749H94.2193C97.6345 61.874 100.849 61.673 102.657 61.4721C103.661 61.4721 104.264 61.2712 104.264 61.2712C104.264 61.0703 104.264 60.8695 104.264 60.6686C104.264 60.6686 102.255 60.4677 99.8443 60.2668C95.4247 59.865 86.3845 59.0614 81.764 58.8605Z" fill="#FF765D"/>
<path d="M116.717 61.8767L119.328 58.8633V28.1267L116.717 25.1133H145.043V35.1579H138.413L132.186 26.3186H129.373V42.9928L138.011 36.765H138.413V50.2249H138.011L129.373 43.7963V58.8633L131.985 61.8767H116.717Z" fill="#53AA48"/>
<path d="M145.846 61.8767L148.457 58.6624V28.3275L145.846 25.1133H161.314C170.556 25.1133 175.176 29.1312 175.176 35.5597C175.176 43.3946 169.752 46.207 158.703 46.207H158.301C158.301 47.8142 160.109 49.0196 161.917 49.0196H174.774V61.8767C170.556 61.8767 166.538 60.4704 163.524 57.8588C161.114 55.8499 159.306 53.0374 158.301 49.8231V58.8633L160.913 61.8767H145.846ZM158.502 44.8008C162.118 44.8008 164.127 39.7784 164.127 35.3588C164.127 30.9391 162.118 26.1177 158.502 26.1177V44.8008Z" fill="#53AA48"/>
<path d="M177.184 43.3936C177.184 32.7463 185.018 24.5098 194.661 24.5098C204.304 24.5098 212.139 32.5454 212.139 43.3936C212.139 54.2418 204.304 62.2776 194.661 62.2776C185.018 62.2776 177.184 54.2418 177.184 43.3936ZM188.233 43.3936C188.233 53.4383 191.045 61.0723 194.661 61.0723C198.076 61.0723 201.09 53.4383 201.09 43.3936C201.09 33.349 198.277 25.7151 194.661 25.7151C191.045 25.916 188.233 33.349 188.233 43.3936Z" fill="#53AA48"/>
<path d="M209.73 61.8767L216.762 54.0419V31.5419L213.146 25.1133H225.802L238.056 48.216L248.704 25.1133H259.552L255.936 31.5419V58.6624L258.547 61.6758H243.48L246.092 58.6624V33.3498L233.034 61.6758L217.967 33.3498V53.8409L224.998 61.6758L209.73 61.8767Z" fill="#53AA48"/>
<path d="M273.613 61.8767L276.225 58.8633V28.1267L273.613 25.1133H301.939V35.1579H295.31L289.082 26.3186H286.27V42.9928L294.908 36.765H295.31V50.2249H294.908L286.27 43.7963V58.8633L288.881 61.8767H273.613Z" fill="#53AA48"/>
<path d="M294.91 61.8767L301.54 54.4436L309.776 28.7293L308.37 25.1133H319.017L332.477 61.8767V62.0776H317.812L320.424 59.2651L316.807 49.2204H304.553L302.745 54.8454L309.174 62.2785L294.91 61.8767ZM316.607 47.8142L310.58 30.7383L305.156 47.8142H316.607Z" fill="#53AA48"/>
<path d="M332.678 61.8767L335.289 58.6624V28.3275L332.678 25.1133H348.146C357.388 25.1133 362.008 29.1312 362.008 35.5597C362.008 43.3946 356.584 46.207 345.535 46.207H345.133C345.133 47.8142 346.941 49.0196 348.749 49.0196H361.606V61.8767C357.388 61.8767 353.37 60.4704 350.356 57.8588C347.946 55.8499 346.138 53.0374 345.133 49.8231V58.8633L347.745 61.8767H332.678ZM345.133 44.8008C348.749 44.8008 350.758 39.7784 350.758 35.3588C350.758 30.9391 348.749 26.1177 345.133 26.1177V44.8008Z" fill="#53AA48"/>
<path d="M361.002 61.8767L368.033 54.0419V31.5419L364.417 25.1133H377.073L389.328 48.216L399.975 25.1133H410.823L407.207 31.5419V58.6624L409.819 61.6758H394.752L397.364 58.6624V33.3498L384.306 61.6758L369.239 33.3498V53.8409L376.27 61.6758L361.002 61.8767Z" fill="#53AA48"/>
<path d="M447.186 48.6172V49.8225H413.838V48.6172H447.186Z" fill="#53AA48"/>
<path d="M481.135 48.6172V49.8225H447.787V48.6172H481.135Z" fill="#53AA48"/>
<path d="M515.288 48.6172V49.8225H481.939V48.6172H515.288Z" fill="#53AA48"/>
<path d="M511.271 24.9121H542.008V37.5683L533.571 26.1174H531.763V58.6621L534.374 61.6755H519.307L521.919 58.6621V26.1174H520.111L511.673 37.5683V24.9121H511.271Z" fill="#53AA48"/>
<path d="M542.008 43.3936C542.008 32.7463 549.843 24.5098 559.486 24.5098C569.128 24.5098 576.963 32.5454 576.963 43.3936C576.963 54.2418 569.128 62.2776 559.486 62.2776C549.843 62.2776 542.008 54.2418 542.008 43.3936ZM553.057 43.3936C553.057 53.4383 555.869 61.0723 559.486 61.0723C562.901 61.0723 565.914 53.4383 565.914 43.3936C565.914 33.349 563.102 25.7151 559.486 25.7151C556.07 25.916 553.057 33.349 553.057 43.3936Z" fill="#53AA48"/>
<path d="M591.629 61.8767L594.24 58.8633V28.1267L591.629 25.1133H607.098C616.339 25.1133 620.959 29.1312 620.959 35.9615C620.959 42.7919 616.339 46.8097 607.299 46.8097H604.285V58.6624L606.897 61.6758H591.629V61.8767ZM604.084 45.6044C607.7 44.5999 609.709 40.783 609.709 35.9615C609.709 31.1401 607.7 26.3186 604.084 26.3186V45.6044Z" fill="#53AA48"/>
<path d="M621.561 61.8767L624.172 58.8633V28.1267L621.561 25.1133H649.886V35.1579H643.257L637.029 26.3186H634.217V42.9928L642.855 36.765H643.257V50.2249H642.855L634.217 43.7963V60.8722H637.029L643.257 52.033H649.886V62.0776L621.561 61.8767Z" fill="#53AA48"/>
<path d="M651.092 43.3936C651.092 32.7463 658.927 24.5098 668.569 24.5098C678.212 24.5098 686.047 32.5454 686.047 43.3936C686.047 54.2418 678.212 62.2776 668.569 62.2776C658.927 62.2776 651.092 54.2418 651.092 43.3936ZM662.141 43.3936C662.141 53.4383 664.953 61.0723 668.569 61.0723C671.985 61.0723 674.998 53.4383 674.998 43.3936C674.998 33.349 672.186 25.7151 668.569 25.7151C664.953 25.916 662.141 33.349 662.141 43.3936Z" fill="#53AA48"/>
<path d="M687.453 61.8767L690.065 58.8633V28.1267L687.453 25.1133H702.922C712.163 25.1133 716.783 29.1312 716.783 35.9615C716.783 42.7919 712.163 46.8097 703.123 46.8097H700.109V58.6624L702.721 61.6758H687.453V61.8767ZM699.908 45.6044C703.525 44.5999 705.533 40.783 705.533 35.9615C705.533 31.1401 703.525 26.3186 699.908 26.3186V45.6044Z" fill="#53AA48"/>
<path d="M717.389 61.8767L720 58.8633V28.1267L717.389 25.1133H732.456L729.844 28.1267V46.4079L723.817 54.6446C722.813 56.0508 720.402 60.0686 726.228 60.4704L732.657 51.832H744.107L737.076 61.8767H717.389Z" fill="#53AA48"/>
<path d="M743.303 61.8767L745.914 58.8633V28.1267L743.303 25.1133H771.629V35.1579H764.999L758.772 26.3186H755.959V42.9928L764.597 36.765H764.999V50.2249H764.597L755.959 43.7963V60.8722H758.772L764.999 52.033H771.629V62.0776L743.303 61.8767Z" fill="#53AA48"/>
<path d="M839.532 58.8605C837.121 58.6596 834.911 58.4587 834.911 58.2578C834.911 58.057 834.911 57.6551 834.71 57.4542C834.71 57.2533 836.317 56.4498 838.125 55.2445C841.741 53.2355 848.773 49.2177 852.188 47.2087C854.197 46.0034 855.603 45.1999 855.603 44.999C855.603 44.7981 855.402 44.3962 855.402 44.1953C855.402 44.1953 853.594 44.798 851.384 45.6016C847.567 47.2088 839.732 50.2221 835.112 52.2311C832.5 53.2355 831.697 52.231 833.304 49.8203C836.317 45.6016 840.938 38.7712 843.348 35.356C844.554 33.548 845.558 31.9409 845.558 31.74C845.357 31.5391 845.157 31.3381 844.956 31.3381C844.956 31.3381 843.549 32.5435 841.942 34.3515C839.13 37.3649 833.706 43.3918 830.29 47.2087C828.482 49.2177 827.277 48.615 827.679 45.8025C828.482 40.5792 829.688 31.9409 830.491 27.7221C830.893 25.3114 831.094 23.5034 830.893 23.5034C830.692 23.5034 830.491 23.5033 830.29 23.3024C830.29 23.3024 829.487 25.1105 828.884 27.5213C827.679 31.74 825.067 39.9766 823.661 44.999C822.857 47.8115 821.451 47.6105 820.648 44.798C819.04 39.5748 816.429 30.5346 815.023 26.115C814.219 23.7043 813.616 21.6953 813.616 21.6953C813.415 21.6953 813.215 21.8963 813.014 21.8963C813.014 21.8963 813.215 23.9052 813.616 26.5168C814.42 31.1373 816.027 40.3784 816.831 45.8025C817.433 48.8159 816.228 49.8203 814.42 47.8114C811.005 44.1953 805.581 38.3694 802.969 35.356C801.563 33.7489 800.157 32.5436 800.157 32.5436C799.956 32.7445 799.755 32.9453 799.554 33.1462C799.554 33.1462 800.357 34.7534 801.563 36.5614C803.773 39.7757 808.393 46.2042 810.603 49.4185C811.808 51.2265 812.813 52.6328 812.612 52.8337C812.411 53.0346 812.009 53.2355 811.808 53.4364C811.808 53.4364 809.799 52.8337 807.59 51.8292C803.572 50.2221 795.536 46.8069 791.518 45.1998C789.308 44.1953 787.5 43.5926 787.5 43.7935C787.5 43.9944 787.299 44.1953 787.299 44.3962C787.299 44.3962 788.907 45.6016 791.116 46.8069C794.933 49.0167 802.768 53.4364 806.585 55.4453C808.795 56.6507 810.402 57.6551 810.402 57.856C810.402 58.0569 810.201 58.4588 810.201 58.6597C810.201 58.8605 808.192 59.0615 805.782 59.0615C801.362 59.2624 792.322 59.865 787.902 60.2668C785.491 60.4677 783.482 60.6686 783.482 60.6686C783.482 60.8695 783.482 61.0703 783.482 61.2712C783.482 61.2712 784.286 61.4721 785.09 61.4721C786.295 61.4721 790.112 61.874 793.326 62.0749H851.987C855.402 61.874 858.616 61.673 860.424 61.4721C861.429 61.4721 862.032 61.2712 862.032 61.2712V60.6686C862.032 60.6686 860.023 60.4677 857.612 60.2668C852.991 59.865 843.951 59.0614 839.532 58.8605Z" fill="#FF765D"/>
</svg>
