<svg width="91" height="141" viewBox="0 0 91 141" fill="none" xmlns="http://www.w3.org/2000/svg">
<path d="M89.7284 90.8025C88.0901 81.3212 84.4354 70.7021 75.3616 66.7831C70.3207 64.634 63.8934 64.634 60.4907 60.3358C58.4744 57.8074 58.2223 54.2677 57.9703 51.1073C57.4662 43.3958 56.836 35.3051 52.9293 28.6049C49.5266 22.7897 42.9733 18.1123 36.294 18.1123C36.042 12.5499 37.5543 6.98749 40.7049 2.31003C39.1926 1.67795 37.5543 0.919393 36.042 0.287304C35.6639 0.160886 35.2858 -0.0919651 34.7817 0.0344528C34.2776 0.160871 33.8996 0.540139 33.6475 0.919393C29.4887 5.97611 27.5983 12.6762 28.4805 18.9971C23.3135 20.2613 19.1547 26.5822 17.0123 31.6389C14.4918 37.8334 12.0973 44.7864 13.7357 51.2337C18.7766 70.702 7.05635 72.9775 3.52766 84.1023C-0.00102549 94.9742 -1.89139 107.237 2.77152 117.729C7.93852 129.234 20.2889 136.566 33.0174 139.473C44.9897 142.128 57.9703 141.496 68.9344 136.186C79.8985 130.877 88.5942 120.764 90.6106 109.133C91.4928 102.939 90.7366 96.8706 89.7284 90.8025Z" fill="#53AA48"/>
</svg>
