<svg width="98" height="134" viewBox="0 0 98 134" fill="none" xmlns="http://www.w3.org/2000/svg">
<path d="M3.69975 119.513C-1.35656 108.582 -1.23017 87.3551 4.07896 72.2297C4.58459 69.3062 7.23917 64.3492 10.0201 61.1715C13.0539 59.265 18.2366 54.6892 21.7761 50.7489C24.0514 47.19 28.0965 39.6909 31.0039 33.844C32.2679 27.9972 38.3355 22.4046 44.6559 21.2607C45.0351 21.3878 45.6672 21.1336 46.0464 20.7523C46.2992 20.4981 46.552 19.8626 46.552 19.4812C46.2992 15.9223 43.0126 10.8381 39.2204 8.04183C36.1866 4.22869 29.8662 2.70345 25.1891 4.48291C23.0402 6.13527 20.7648 6.13523 20.1328 4.35576C20.0064 3.46603 20.6384 2.19497 21.6496 1.55945C25.9475 -0.982645 33.4056 -0.347076 38.3355 2.95764C41.2429 5.49974 46.8048 11.2194 50.7235 15.6681C50.9763 16.1765 51.6083 16.6849 52.2404 16.812C52.6196 16.812 53.378 16.812 53.8837 16.812C57.0438 16.4307 61.9738 18.5915 64.8811 21.3878C68.547 26.5991 74.3617 38.2927 77.9011 47.3171C79.418 52.02 84.0951 60.9173 88.2666 67.1455C89.9099 68.9249 92.5645 73.1194 94.0814 76.4241C95.0926 78.4578 96.3567 82.9064 96.8623 86.2112C98.3792 90.6598 98.3792 99.43 96.8623 105.912C96.6095 111.124 92.0588 118.496 86.7497 122.563C81.3142 126.63 74.4881 128.156 67.7885 129.554C61.7209 131.46 49.0802 133.367 39.5996 133.748C34.9225 134.511 26.0739 133.494 19.7535 131.333C13.4331 129.173 7.49199 125.359 3.69975 119.894" fill="#FF765D"/>
</svg>
