<svg width="332" height="340" viewBox="0 0 332 340" fill="none" xmlns="http://www.w3.org/2000/svg">
<path d="M44.9778 292.978C48.1778 272.356 50.8444 254.578 53.6888 235.2C35.911 228.267 18.6667 221.689 0 214.4C12.0889 199.111 23.4666 184.533 35.911 168.889C24.5332 154.489 13.3333 140.444 0 123.733C14.4 118.222 27.3777 112.533 40.711 108.089C50.8444 104.711 53.8666 98.8444 51.3777 88.3555C48.1777 74.6666 46.2222 60.8 43.5556 44.9778C63.4667 48.3555 80.8888 51.3777 99.911 54.4C106.667 36.6222 113.244 19.2 120.355 0C135.644 12.6222 149.689 24.5333 164.8 36.9778C179.555 24.8889 193.778 13.3333 209.067 0.888889C216.178 19.3778 222.756 36.2666 230.044 54.9333C248.356 52.2666 266.311 49.7778 286.222 46.7555C283.2 66.8444 280.533 84.6222 277.511 103.822C295.111 110.756 312.178 117.511 331.022 124.978C318.755 140.444 307.556 154.311 295.289 169.778C306.844 184.356 318.4 198.933 331.556 215.467C317.333 220.978 304.889 226.667 291.911 230.4C280.355 233.778 277.689 239.644 280.533 251.2C283.733 264.178 285.156 277.689 287.822 293.511C268.089 290.311 250.133 287.467 231.111 284.444C224.533 302.4 218.133 319.822 211.2 339.022C195.911 326.222 182.044 314.667 166.756 301.867C152.533 313.422 138.489 324.978 122.311 338.133C116.8 323.022 112.889 308.8 106.311 296C103.644 290.844 94.9333 285.689 89.2444 285.867C75.1999 286.756 61.6889 290.311 44.9778 292.978Z" fill="#FF765D"/>
<path d="M112.356 259.91L119.111 267.732L109.867 263.11L109.156 273.421L105.956 263.644L98.1336 270.399L102.756 261.155L92.4448 260.444L102.223 257.243L95.467 249.421L104.711 254.044L105.423 243.732L108.623 253.51L116.445 246.755L111.823 255.999L121.956 256.71L112.356 259.91Z" fill="white"/>
<path d="M80.3556 232.712L71.8223 217.956L74.4889 216.356L81.7779 228.8L84.4446 227.201L77.6889 215.645L80.3556 214.045L87.1112 225.6L92.4446 222.4L93.8668 224.712L80.3556 232.712Z" fill="white"/>
<path d="M65.9565 201.601L77.6898 187.912L78.2233 187.734L79.1121 190.757L75.9121 194.312L78.9343 204.801L83.5566 206.045L84.4455 209.068L83.9121 209.245L66.8454 203.912L65.9565 201.601ZM69.1565 202.134L75.5566 204.09L73.601 197.157L69.1565 202.134Z" fill="white"/>
<path d="M77.5116 180.799V183.466H62.0449V169.421C62.0449 165.51 63.4672 163.377 66.8449 163.377C69.8672 163.377 71.1116 165.332 71.2894 168.355L77.156 163.91H77.6893V167.11L71.645 171.555V180.799H77.5116ZM65.0672 168.888V180.799H68.6227V168.888C68.6227 166.933 67.9116 166.044 66.8449 166.044C65.7783 166.044 65.0672 166.933 65.0672 168.888Z" fill="white"/>
<path d="M81.0669 147.735L67.378 152.179L78.4003 155.735L77.5114 158.401L62.7559 153.601L63.8225 150.401L78.2225 145.601L69.5114 133.335L70.578 130.135L85.3337 134.935L84.4448 137.601L73.4225 134.046L81.7781 145.779L81.0669 147.735Z" fill="white"/>
<path d="M85.1561 128.889L86.2228 118.578C86.4006 116.622 86.4006 115.733 85.3339 115.2C84.2673 114.489 82.845 115.022 81.4228 117.333C80.1784 119.111 79.8227 120.889 80.3561 123.733L77.8672 124.444C76.6228 121.422 77.1561 118.044 78.7561 115.556C81.0672 112 84.0894 111.111 86.9339 112.889C89.7783 114.667 89.6005 118.044 87.4672 125.867L93.1561 116.8L95.8228 118.578L87.645 130.667L85.1561 128.889Z" fill="white"/>
<path d="M88.1787 102.934L97.9565 94.045C101.156 91.2006 103.823 91.2006 105.956 93.5117C108.09 95.8228 107.734 98.4895 104.534 101.512L96.712 108.445L100.445 112.534L98.3121 114.312L88.1787 102.934ZM100.445 96.0006L92.2676 103.467L94.9342 106.312L103.112 98.845C104.712 97.4228 104.89 96.3561 104.001 95.2895C103.29 94.5784 102.045 94.5784 100.445 96.0006Z" fill="white"/>
<path d="M109.689 84.8008L125.512 76.623L126.934 79.2897L113.601 86.2231L115.023 89.0675L127.645 82.4897L129.067 84.9786L116.445 91.5564L118.045 94.5786L131.556 87.6453L132.978 90.312L116.978 98.6675L109.689 84.8008Z" fill="white"/>
<path d="M144.356 70.7552C150.578 69.333 155.911 71.2885 156.8 76.2663C157.867 81.2441 153.956 85.1552 147.556 86.3997C141.334 87.6441 136.178 85.8664 135.111 80.8886C134.222 75.9108 138.133 72.1775 144.356 70.7552ZM147.022 83.3774C152 82.3107 154.845 79.9996 154.133 76.7996C153.422 73.7774 149.867 72.7108 144.889 73.7775C140.089 74.8441 137.245 77.1552 137.778 80.3552C138.489 83.3774 142.222 84.4441 147.022 83.3774Z" fill="white"/>
<path d="M164.622 68.2656L177.778 69.3324C182.045 69.6879 184 71.6434 183.645 74.8434C183.467 78.0434 181.334 79.6434 176.889 79.2879L166.4 78.399L166.045 83.91L163.378 83.7323L164.622 68.2656ZM178.133 72.3545L167.111 71.4656L166.756 75.3767L177.778 76.2656C179.911 76.4434 180.8 75.7323 180.978 74.4878C181.156 73.4212 180.267 72.5323 178.133 72.3545Z" fill="white"/>
<path d="M192.712 71.6445L195.378 72.5334L191.112 84.2667L204.089 88.889L203.023 91.7334L187.556 86.2223L192.712 71.6445Z" fill="white"/>
<path d="M215.823 80.7109L230.578 90.4887L228.978 92.9776L216.534 84.6221L214.756 87.2887L226.667 95.2887L225.067 97.7777L213.156 89.7777L211.201 92.6221L223.823 101.155L222.223 103.644L207.29 93.6887L215.823 80.7109Z" fill="white"/>
<path d="M229.867 106.31C230.934 107.377 231.467 108.799 230.578 109.51C229.689 110.399 228.445 109.866 227.2 108.799C226.134 107.732 225.6 106.31 226.489 105.421C227.378 104.71 228.8 105.244 229.867 106.31Z" fill="white"/>
<path d="M251.735 112.888C255.29 118.222 255.646 123.733 251.379 126.577C247.29 129.422 242.135 127.288 238.401 121.955C234.846 116.799 234.668 111.11 238.757 108.266C243.023 105.422 248.179 107.555 251.735 112.888ZM241.068 120.177C243.912 124.266 247.29 126.044 249.779 124.266C252.268 122.488 251.912 118.755 249.068 114.666C246.223 110.577 242.846 108.799 240.357 110.577C237.868 112.355 238.223 116.088 241.068 120.177Z" fill="white"/>
<path d="M248.178 137.955L247.29 135.288L262.045 130.666L266.312 143.999C267.556 147.733 266.667 150.222 263.645 151.288C260.801 152.177 259.023 150.755 257.956 147.91L253.867 153.955L253.334 154.133L252.445 151.11L256.712 145.066L253.867 136.355L248.178 137.955ZM263.823 145.422L260.267 134.044L256.89 135.11L260.445 146.488C260.978 148.266 261.867 148.977 262.934 148.622C264.001 148.266 264.356 147.377 263.823 145.422Z" fill="white"/>
<path d="M255.29 179.555L255.112 177.067L257.601 176.889C255.645 175.111 254.579 172.267 254.579 169.244C254.223 162.667 257.068 158.755 262.223 158.578C267.201 158.4 270.401 162.667 270.756 169.067C270.934 173.155 269.868 176.533 268.09 178.667L265.956 177.244C267.201 174.933 267.912 172.8 267.734 169.067C267.556 164.267 265.601 161.067 262.401 161.244C259.379 161.422 257.601 164.267 257.779 169.067C257.956 172.8 259.023 175.289 260.268 176.711H261.156L260.801 170.311L263.823 170.133L264.179 179.378L255.29 179.555Z" fill="white"/>
<path d="M260.445 211.555L266.489 203.377L264.001 213.333L274.134 211.91L265.423 217.244L273.6 223.288L263.645 220.799L265.067 230.933L259.734 222.221L253.689 230.577L256.178 220.621L246.045 222.221L254.756 216.888L246.578 210.844L256.534 213.333L255.112 203.199L260.445 211.555Z" fill="white"/>
<path d="M212.979 191.999C212.623 183.821 212.09 175.643 211.379 167.466C211.201 164.088 208.001 161.421 204.446 161.421C201.068 161.243 197.512 163.732 196.979 167.11C196.623 168.71 196.979 170.31 196.979 171.91C197.334 179.021 197.69 186.132 198.223 193.421C198.401 196.977 202.134 200.355 207.112 199.288C210.49 198.577 213.157 195.377 212.979 191.999ZM185.423 157.688C181.334 158.043 178.49 161.066 178.49 164.977C178.49 169.066 178.845 172.977 179.023 177.066C179.023 177.421 179.379 177.955 179.734 178.31C184.712 182.043 185.601 188.977 180.801 194.132C180.445 194.488 180.268 195.021 180.446 195.377C181.157 198.755 185.068 200.888 188.979 200.354C192.357 199.821 195.201 196.443 195.023 193.243C194.49 183.821 193.957 174.221 193.423 164.799C193.423 164.266 193.245 163.732 193.245 163.199C192.357 159.821 188.801 157.332 185.423 157.688ZM158.757 183.288C161.068 181.866 163.201 180.443 165.512 179.021C168.534 176.888 171.912 175.643 176.001 176.532C175.823 174.755 175.823 172.977 175.646 171.377C174.579 152.888 173.69 134.221 172.623 115.732C172.446 113.599 172.623 111.466 171.023 109.688C169.068 107.199 166.046 106.31 162.846 107.377C160.001 108.443 158.045 110.932 158.045 114.31C157.868 120.532 157.868 126.754 157.69 132.799C157.512 145.777 157.157 158.932 156.979 171.91C156.979 172.799 156.801 173.688 155.734 173.866C154.49 174.221 154.134 173.332 153.601 172.621C149.868 165.866 146.134 159.11 142.401 152.354C137.779 143.999 133.157 135.466 128.534 127.11C125.512 121.777 118.401 121.421 114.668 126.577C112.712 129.243 113.068 131.91 114.312 134.755C118.934 144.355 123.557 154.132 128.179 163.732C132.446 172.799 136.179 181.866 138.668 191.466C139.023 192.888 139.379 194.31 139.734 195.732C146.312 191.466 152.534 187.377 158.757 183.288ZM196.801 198.399C191.823 205.866 180.979 204.977 177.601 197.155C174.934 198.932 172.268 200.71 169.601 202.31C171.557 203.555 173.512 204.621 175.468 205.866C183.112 211.199 187.734 218.31 188.979 227.377C189.157 228.266 188.801 229.155 187.734 229.332C186.846 229.51 185.957 228.977 185.779 227.732C185.068 223.11 183.468 219.021 180.801 215.288C176.89 210.132 171.734 206.577 165.868 203.91C165.69 203.91 165.69 203.91 165.512 203.732C166.046 205.51 166.401 207.288 166.934 208.888C167.646 211.91 167.468 214.755 166.045 217.421C165.512 218.31 164.979 218.843 163.912 218.31C162.845 217.955 162.668 217.066 163.201 216.177C164.801 213.155 164.09 210.132 163.201 207.11C163.023 206.399 162.668 205.688 162.49 204.977C161.957 203.021 162.846 201.066 164.979 200.354C170.668 198.221 175.29 195.021 179.379 190.755C181.868 188.088 181.69 183.999 179.201 181.155C176.89 178.488 172.801 177.599 169.779 179.377C165.512 181.866 161.423 184.71 157.157 187.377C151.823 190.755 146.49 194.31 141.334 197.688C140.979 198.043 140.446 198.577 140.446 199.11C140.446 204.443 140.623 209.777 140.801 214.932C140.801 217.954 142.223 220.799 143.468 223.466C148.09 232.71 155.557 239.11 165.69 242.31C177.957 246.221 189.868 244.621 200.534 237.154C212.268 228.977 217.601 217.777 217.423 203.91C217.423 202.666 217.246 201.421 217.068 200.177C216.712 198.399 216.357 196.621 215.823 194.488C212.446 203.199 202.312 204.799 196.801 198.399ZM197.512 160.71C202.846 156.266 211.734 158.399 213.868 164.799C214.579 167.11 214.757 169.777 214.934 172.266C215.29 178.666 215.823 185.066 217.779 191.11C218.312 192.71 218.668 194.132 219.023 195.732C220.445 201.243 220.979 206.932 219.912 212.621C217.245 226.843 209.423 237.332 195.912 243.91C187.201 247.999 177.957 249.066 168.712 246.932C156.268 244.266 147.023 237.332 141.157 226.488C139.201 222.932 137.601 219.199 137.423 215.11C137.246 212.621 137.423 209.954 137.245 207.466C137.245 202.843 137.423 198.399 136.179 193.777C133.868 185.243 130.846 176.888 127.112 168.888C121.957 157.866 116.623 146.843 111.468 135.643C108.623 129.599 111.29 123.021 117.69 120.532C122.845 118.577 128.534 120.71 131.379 125.688C137.779 137.066 144.001 148.443 150.223 159.999C151.29 161.955 152.534 164.088 153.779 166.399C153.957 165.688 153.957 165.51 153.957 165.154C153.957 161.955 154.134 158.577 154.134 155.377C154.312 141.51 154.668 127.466 154.846 113.599C154.846 110.043 156.801 107.199 160.001 105.421C166.934 101.51 175.112 105.955 175.468 113.777C176.179 126.221 176.712 138.488 177.423 150.932C177.601 153.243 177.779 155.732 177.779 158.221C184.712 152.355 193.068 155.021 195.912 162.132C196.623 161.421 196.979 161.066 197.512 160.71Z" fill="#FFB1D8"/>
<path d="M178.134 252.622C174.756 252.622 171.201 252.267 167.823 251.556C154.134 248.533 143.823 240.889 137.067 228.8C135.112 225.422 132.978 220.8 132.623 215.289C132.445 213.511 132.445 211.733 132.445 209.956C132.445 209.067 132.445 208.356 132.445 207.467C132.445 206.756 132.445 206.045 132.445 205.333C132.445 201.6 132.445 198.222 131.556 195.022C129.423 187.022 126.578 179.022 122.845 170.845C118.934 162.489 115.023 153.956 111.112 145.778L107.201 137.778C105.245 133.689 105.067 129.245 106.667 125.156C108.267 121.067 111.645 117.867 115.912 116.089C123.201 113.245 131.556 116.445 135.467 123.378C139.734 131.2 144.001 138.845 148.267 146.667L149.512 148.8L149.69 143.289C149.867 133.333 150.045 123.2 150.223 113.245C150.401 108.089 153.067 103.645 157.69 100.978C162.49 98.3112 168.001 98.3112 172.445 100.8C176.89 103.289 179.912 107.911 180.09 113.245C180.445 120.889 180.979 128.533 181.334 136.178L182.045 150.4C184.534 149.689 187.201 149.689 189.69 150.4C192.712 151.111 195.379 152.711 197.334 155.022C200.712 153.422 204.623 153.067 208.356 154.133C212.978 155.378 216.712 158.756 218.134 163.022C219.201 166.045 219.378 169.067 219.378 171.733C219.556 177.245 220.09 183.467 222.045 189.333C222.401 190.578 222.756 191.822 223.112 192.889C223.29 193.422 223.29 193.778 223.467 194.311C225.245 201.067 225.601 207.289 224.534 213.333C221.512 229.333 212.623 240.889 197.867 248C191.467 251.2 184.89 252.622 178.134 252.622ZM145.067 201.422C145.067 204.445 145.245 207.467 145.245 210.489L145.423 215.467C145.423 217.6 146.49 219.733 147.556 221.867C151.645 230.045 158.223 235.556 166.934 238.222C177.956 241.778 188.267 240.178 197.69 233.6C207.823 226.667 212.623 217.245 212.445 204.978C210.845 205.867 209.245 206.4 207.467 206.756C203.734 207.289 200.179 206.578 196.979 204.8C193.779 207.289 189.867 208.533 185.779 208.178C185.423 208.178 185.067 208.178 184.534 208C189.334 213.333 192.356 219.556 193.423 226.845C193.956 230.222 192.001 233.067 188.979 233.956C187.201 234.489 185.423 234.133 184.001 233.245C182.401 232.178 181.334 230.578 181.156 228.622C180.623 224.711 179.201 221.511 176.89 218.311C175.467 216.356 173.69 214.578 171.734 213.156C171.734 215.645 171.023 217.956 169.956 220.267C168.356 223.289 164.978 224.533 161.956 223.289C160.178 222.578 158.934 221.333 158.401 219.733C157.867 218.133 158.045 216.356 158.934 214.578C159.645 213.333 159.467 211.911 158.578 209.067C158.578 208.889 158.401 208.533 158.223 208.356C158.045 207.822 157.867 207.467 157.69 206.933C156.267 202.489 158.578 198.222 163.023 196.622C167.823 194.845 172.09 192 175.645 188.267C176.534 187.378 176.178 185.956 175.467 184.889C174.578 183.822 172.978 183.467 171.912 184.178C168.712 186.133 165.512 188.089 162.49 190.222L159.645 192.178C154.845 195.2 149.867 198.222 145.067 201.422ZM185.779 195.378C186.312 195.733 187.201 195.911 188.09 195.733C189.156 195.556 190.223 194.311 190.045 193.422C189.512 184 188.979 174.4 188.445 164.978C188.445 164.8 188.445 164.622 188.445 164.445V164.089C188.09 163.022 186.845 162.133 185.779 162.311C184.534 162.489 183.112 163.2 183.112 164.8C183.112 168.178 183.467 171.733 183.645 175.111V175.467C186.49 177.956 188.267 181.511 188.623 185.245C188.978 188.8 187.912 192.356 185.779 195.378ZM204.09 166.045C202.845 166.045 201.601 167.111 201.423 168C201.245 168.533 201.423 169.422 201.423 170.489C201.423 170.845 201.423 171.378 201.601 171.733L201.779 176.356C202.134 181.867 202.312 187.556 202.845 193.067C202.845 193.422 203.201 193.956 203.556 194.311C204.09 194.667 204.801 195.022 206.045 194.667C207.29 194.489 208.178 193.245 208.178 192.178C207.823 183.822 207.29 175.645 206.756 167.822C206.756 167.111 205.512 166.222 204.09 166.045C204.267 166.045 204.267 166.045 204.09 166.045ZM121.601 127.467C120.534 127.467 119.29 128 118.578 129.245C118.223 129.778 117.69 130.489 118.756 132.622L121.423 138.311C125.156 145.956 128.89 153.778 132.445 161.6C137.067 171.556 140.445 180.089 142.756 188.089L155.912 179.556L155.378 178.489C153.601 178.489 151.467 177.778 149.69 174.756C147.023 169.956 144.356 165.156 141.867 160.533L134.578 147.2C131.378 141.333 128.001 135.289 124.801 129.422C124.09 128.356 123.201 127.645 122.134 127.645C121.778 127.467 121.601 127.467 121.601 127.467ZM156.623 178.489L156.445 179.378C157.156 179.022 157.69 178.489 158.401 178.133C159.823 177.245 161.423 176.178 162.845 175.289C165.512 173.333 168.178 172.267 170.845 171.911V171.733L167.823 115.556C167.823 114.133 167.645 113.245 167.29 112.711C166.401 111.822 165.512 111.467 164.267 111.822C162.845 112.356 162.667 113.6 162.49 114.311C162.49 118.045 162.312 121.778 162.312 125.511L161.601 171.911C161.423 176.711 158.045 178.133 156.979 178.311C156.801 178.311 156.801 178.311 156.623 178.489Z" fill="#FFB1D8"/>
<path d="M215.645 195.022C212.268 203.2 202.134 204.8 196.801 198.4C191.823 205.867 180.979 204.978 177.601 197.156C174.934 198.934 172.267 200.711 169.601 202.311C171.556 203.556 173.512 204.623 175.467 205.867C183.112 211.2 187.734 218.311 188.979 227.378C189.156 228.267 188.801 229.156 187.734 229.334C186.845 229.511 185.956 228.978 185.779 227.734C185.068 223.111 183.467 219.022 180.801 215.289C176.89 210.134 171.734 206.578 165.868 203.911C165.69 203.911 165.69 203.911 165.512 203.734C166.045 205.511 166.401 207.289 166.934 208.889C167.645 211.911 167.467 214.756 166.045 217.423C165.512 218.311 164.979 218.845 163.912 218.311C162.845 217.956 162.668 217.067 163.201 216.178C164.801 213.156 164.09 210.134 163.201 207.111C163.023 206.4 162.667 205.689 162.49 204.978C161.956 203.023 162.845 201.067 164.979 200.356C170.668 198.222 175.29 195.023 179.379 190.756C181.867 188.089 181.69 184 179.201 181.156C176.89 178.489 172.801 177.6 169.779 179.378C165.512 181.867 161.423 184.711 157.156 187.378C151.823 190.756 146.49 194.311 141.334 197.689C140.979 198.045 140.445 198.578 140.445 199.111C140.445 204.445 140.623 209.778 140.801 214.934C140.801 217.956 142.223 220.8 143.467 223.467C148.09 232.711 155.556 239.111 165.69 242.311C177.956 246.223 189.868 244.622 200.534 237.156C212.268 228.978 217.601 217.778 217.423 203.911C217.423 202.667 217.245 201.422 217.067 200.178C216.712 198.934 216.179 197.156 215.645 195.022Z" fill="#FF765D"/>
<path d="M139.912 195.555C146.312 191.466 152.534 187.377 158.756 183.289C161.067 181.866 163.201 180.444 165.512 179.022C168.534 176.889 171.912 175.644 176.001 176.533C175.823 174.755 175.823 172.977 175.645 171.377C174.578 152.889 173.69 134.222 172.623 115.733C172.445 113.6 172.623 111.466 171.023 109.689C169.067 107.2 166.045 106.311 162.845 107.377C160.001 108.444 158.045 110.933 158.045 114.311C157.867 120.533 157.867 126.755 157.689 132.8C157.512 145.777 157.156 158.933 156.978 171.911C156.978 172.8 156.801 173.689 155.734 173.866C154.49 174.222 154.134 173.333 153.601 172.622C149.867 165.866 146.134 159.111 142.401 152.355C137.778 144 133.156 135.466 128.534 127.111C125.512 121.778 118.401 121.422 114.667 126.577C112.712 129.244 113.067 131.911 114.312 134.755C118.934 144.355 123.556 154.133 128.178 163.733C132.445 172.8 136.178 181.866 138.667 191.466C139.201 192.711 139.556 194.133 139.912 195.555Z" fill="#FF765D"/>
<path d="M193.067 163.199C192.178 159.822 188.8 157.333 185.423 157.688C181.334 158.044 178.489 161.066 178.489 164.977C178.489 169.066 178.845 172.977 179.023 177.066C179.023 177.421 179.378 177.955 179.734 178.31C184.712 182.044 185.6 188.977 180.8 194.133C180.445 194.488 180.267 195.021 180.445 195.377C181.156 198.755 185.067 200.888 188.978 200.355C192.356 199.821 195.2 196.444 195.023 193.244C194.489 183.821 193.956 174.221 193.423 164.799C193.245 164.266 193.245 163.733 193.067 163.199Z" fill="#FF765D"/>
<path d="M207.111 199.11C210.489 198.399 213.156 195.377 212.978 191.821C212.622 183.643 212.089 175.466 211.378 167.288C211.2 163.91 208 161.243 204.445 161.243C201.067 161.066 197.511 163.554 196.978 166.932C196.622 168.532 196.978 170.132 196.978 171.732C197.333 178.843 197.689 185.954 198.222 193.243C198.4 196.799 202.133 200.177 207.111 199.11Z" fill="#FF765D"/>
</svg>
