<svg width="211" height="193" viewBox="0 0 211 193" fill="none" xmlns="http://www.w3.org/2000/svg">
<path d="M99.0175 138.367C92.1155 135.813 84.8802 133.067 80.3516 127.621C75.823 122.174 74.7754 114.827 73.7248 107.797C72.8857 102.026 72.0487 96.0421 73.5559 90.237C75.0661 84.1142 79.0273 78.6927 82.763 73.4962C86.1583 68.8492 89.5547 64.0962 92.95 59.4492C93.8552 58.2312 94.7604 57.0131 95.998 56.0929C97.6836 55.0403 99.8093 54.7024 101.709 54.5896C108.976 54.0525 116.347 54.2501 123.188 51.4096C125.88 50.2973 128.352 48.7746 131.15 48.1851C133.501 47.7281 135.956 48.0058 138.299 48.2901C148.677 49.4735 159.277 50.7495 168.511 54.8587C170.624 55.7917 172.736 56.9366 175.076 57.5386C176.748 57.9686 178.533 58.1802 179.978 58.9412C182.202 60.0793 183.408 62.4422 184.505 64.5999C185.821 67.1679 187.027 69.6366 188.343 72.2046C189.111 73.6409 189.768 75.0838 189.975 76.765C190.289 79.075 188.48 81.2992 188.682 83.6159C189.688 95.305 186.044 102.613 182.6 112.449C181.45 115.905 175.938 119.936 175.68 123.55C175.554 125.04 175.652 126.516 174.969 127.826C174.514 128.7 173.837 129.481 173.048 130.163C168.316 134.466 161.708 136.234 155.654 138.499C148.929 140.909 142.196 144.061 135.147 145.22C129.33 146.094 123.415 145.493 117.612 144.885C111.139 144.21 106.12 143.344 100.79 139.956L99.0175 138.367Z" fill="#FFB1D8"/>
<path d="M129.832 136.305C125.08 135.462 120.215 134.929 117.781 134.764C116.454 134.638 116.344 134.543 117.562 134.473C119.778 134.345 124.209 133.989 126.424 133.862C127.643 133.792 128.536 133.031 128.322 132.231C128.005 130.727 127.036 127.941 126.385 126.558C126.061 125.765 126.172 125.758 126.718 126.437C127.373 127.415 129.783 130.016 132.199 132.008C132.308 132.205 132.638 132.389 132.97 132.37C133.303 132.351 133.859 132.015 134.084 131.697C136.545 129.12 139.006 126.442 140.347 125.147C141.019 124.398 141.239 124.487 140.899 125.319C140.221 126.778 138.865 129.596 138.186 131.056C137.846 131.887 138.73 132.039 140.395 131.538C143.283 130.56 149.056 128.909 152.051 128.23C153.716 127.83 154.156 128.109 153.042 128.782C151.484 129.683 147.14 132.368 143.131 134.831C139.902 136.742 136.117 138.887 132.583 137.974" fill="#EBD7D0"/>
<path d="M106.977 103.883C102.574 97.0916 96.1221 90.1634 87.2859 90.4858C82.3859 90.6868 77.0151 93.0823 72.7965 90.9949C70.3025 89.7725 68.9593 87.103 67.7375 84.7296C64.8488 78.8971 61.7335 72.8155 56.3251 69.0408C51.621 65.7691 44.6483 64.5599 39.0669 67.0493C37.0765 62.8007 36.5604 57.8945 37.6965 53.0685C36.2306 53.1387 34.6188 53.1571 33.1529 53.2273C32.7965 53.2695 32.3997 53.213 32.0189 53.4996C31.6381 53.7862 31.4435 54.2232 31.3543 54.6132C29.497 60.111 30.0612 66.0463 32.8209 70.6523C28.9077 73.565 27.455 80.0497 27.2827 84.796C27.1585 90.5715 27.3824 96.8921 30.8143 101.315C41.256 114.635 32.1903 120.78 32.8012 130.78C33.3312 140.583 35.6752 150.861 42.929 157.315C50.9276 164.37 63.5939 165.491 75.1605 163.017C86.0143 160.628 96.6589 155.296 104.122 147.064C111.585 138.833 115.615 127.696 113.579 117.865C112.334 112.7 109.761 108.245 106.977 103.883Z" fill="#53AA48"/>
</svg>
