<svg width="55" height="55" viewBox="0 0 55 55" fill="none" xmlns="http://www.w3.org/2000/svg">
<rect width="55" height="55" rx="5" fill="#53AA48"/>
<path d="M41.6093 20.9828C42.9513 19.9877 44.0801 18.7456 45 17.3155V17.3141C43.7721 17.8755 42.4659 18.2488 41.1019 18.4297C42.5044 17.5553 43.5755 16.1811 44.0788 14.5255C42.7711 15.3397 41.3274 15.9141 39.7887 16.2357C38.5471 14.8544 36.7775 14 34.847 14C31.1015 14 28.0861 17.1748 28.0861 21.0661C28.0861 21.6261 28.1315 22.1645 28.2429 22.6771C22.6191 22.3899 17.6416 19.5756 14.2976 15.2866C13.7146 16.3448 13.3709 17.5553 13.3709 18.8576C13.3709 21.3044 14.5768 23.4726 16.3766 24.729C15.289 24.7075 14.2234 24.3772 13.32 23.8589V23.9364C13.32 27.3696 15.6644 30.2213 18.7403 30.879C18.1889 31.0369 17.5894 31.1116 16.9665 31.1116C16.5334 31.1116 16.0961 31.0857 15.6864 30.991C16.5623 33.7881 19.051 35.8457 22.0072 35.9132C19.7055 37.7928 16.7823 38.9257 13.6184 38.9257C13.0643 38.9257 12.5321 38.8999 12 38.8295C14.9975 40.847 18.5477 42 22.3785 42C34.3176 42 42.0988 31.5984 41.6093 20.9828Z" fill="white"/>
</svg>
